<?xml version="1.0" encoding="UTF-8"?>
<svg version="1.1" xmlns="http://www.w3.org/2000/svg" width="1024" height="1024">
<path d="M0 0 C0.9480098 -0.00315216 1.89601959 -0.00630432 2.87275696 -0.009552 C4.42110481 -0.00651566 4.42110481 -0.00651566 6.00073242 -0.00341797 C7.05524094 -0.00437469 8.10974945 -0.00533142 9.19621277 -0.00631714 C11.43321797 -0.00699929 13.67022514 -0.0051426 15.90722656 -0.00097656 C19.33101875 0.00435531 22.7546788 -0.00091217 26.1784668 -0.00732422 C28.34838896 -0.00666313 30.51831104 -0.00538133 32.68823242 -0.00341797 C33.71439163 -0.0054422 34.74055084 -0.00746643 35.79780579 -0.009552 C36.75527206 -0.00639984 37.71273834 -0.00324768 38.69921875 0 C39.54003494 0.00079559 40.38085114 0.00159119 41.24714661 0.00241089 C43.48135102 0.125947 45.39260828 0.5396907 47.54370117 1.12939453 C49.20365204 1.28329498 50.8673064 1.39946123 52.53198242 1.48876953 C65.27044782 2.26821571 77.77388987 3.60393019 90.35620117 5.69189453 C91.03059235 5.80376099 91.70498352 5.91562744 92.39981079 6.03088379 C100.65479646 7.40984492 108.80736686 8.90592686 116.92651367 10.94189453 C117.97063919 11.20256714 117.97063919 11.20256714 119.03585815 11.46850586 C120.50004291 11.83438262 121.96408058 12.20084843 123.42797852 12.56787109 C125.66793913 13.12920357 127.90851846 13.68801437 130.14916992 14.24658203 C131.57498893 14.60320192 133.00077146 14.95996773 134.42651367 15.31689453 C135.09530548 15.48358643 135.76409729 15.65027832 136.45315552 15.82202148 C139.18889629 16.50940995 141.86616101 17.23688114 144.54370117 18.12939453 C144.54370117 17.46939453 144.54370117 16.80939453 144.54370117 16.12939453 C147.01870117 16.62439453 147.01870117 16.62439453 149.54370117 17.12939453 C149.21370117 17.78939453 148.88370117 18.44939453 148.54370117 19.12939453 C150.97942177 19.96826509 153.41703335 20.80065982 155.85620117 21.62939453 C156.89164063 21.98710938 156.89164063 21.98710938 157.94799805 22.35205078 C160.93301606 23.36147716 163.37029032 24.12939453 166.54370117 24.12939453 C166.54370117 24.78939453 166.54370117 25.44939453 166.54370117 26.12939453 C167.45249023 26.38462891 167.45249023 26.38462891 168.37963867 26.64501953 C173.88361682 28.23693937 179.08936085 30.1075738 184.31713867 32.45751953 C186.88683523 33.23293674 188.0297037 32.93489984 190.54370117 32.12939453 C192.54333145 32.0909401 194.5442175 32.08395172 196.54370117 32.12939453 C196.21370117 33.77939453 195.88370117 35.42939453 195.54370117 37.12939453 C196.55045898 37.59087891 197.5572168 38.05236328 198.59448242 38.52783203 C217.17659953 47.11349569 234.7512421 56.8838313 252.1472168 67.67138672 C254.14795259 68.88862329 256.16300992 70.0424447 258.21557617 71.16845703 C262.24027639 73.53981796 265.85457632 76.27369323 269.54370117 79.12939453 C270.92593736 80.17963262 272.30875466 81.22910632 273.69213867 82.27783203 C284.11715747 90.22649817 294.4817616 98.13283112 304.17260742 106.97705078 C306.28873228 108.8979483 308.43679386 110.76928885 310.60620117 112.62939453 C314.35958563 115.8918937 317.82909481 119.3960056 321.31713867 122.93798828 C323.36769494 124.95616734 325.47472948 126.8325247 327.66870117 128.69189453 C330.91157934 131.48419668 333.6821169 134.4511967 336.44213867 137.71533203 C338.09993502 139.61964085 339.78425235 141.46214378 341.52026367 143.29345703 C347.55988553 149.66886283 353.29480762 156.04547889 358.38476562 163.21801758 C359.37109987 164.57292824 360.45060946 165.85904471 361.54370117 167.12939453 C362.53370117 167.12939453 363.52370117 167.12939453 364.54370117 167.12939453 C364.59655273 167.79197266 364.6494043 168.45455078 364.70385742 169.13720703 C365.90587212 173.41973381 368.35958454 176.45577296 370.98120117 180.00439453 C372.07648247 181.52151936 373.17020452 183.03977097 374.26245117 184.55908203 C374.81288086 185.32188477 375.36331055 186.0846875 375.93041992 186.87060547 C381.58226551 194.78387353 387.12823592 202.84954432 391.60620117 211.49267578 C392.5557128 213.31615682 392.5557128 213.31615682 394.54370117 215.12939453 C395.79754995 217.48992673 396.99767531 219.85328287 398.16870117 222.25439453 C398.88987631 223.71672242 399.6112355 225.17895955 400.33276367 226.64111328 C400.70046875 227.38925293 401.06817383 228.13739258 401.44702148 228.90820312 C402.47676376 230.99382094 403.51852138 233.0727457 404.56713867 235.14892578 C409.40311258 244.72801147 414.0165367 254.40080704 418.54370117 264.12939453 C419.20370117 264.12939453 419.86370117 264.12939453 420.54370117 264.12939453 C420.59268555 264.83966797 420.64166992 265.54994141 420.69213867 266.28173828 C420.7669043 267.20083984 420.84166992 268.11994141 420.91870117 269.06689453 C421.02311523 270.44167969 421.02311523 270.44167969 421.12963867 271.84423828 C421.2662793 272.59833984 421.40291992 273.35244141 421.54370117 274.12939453 C422.20370117 274.45939453 422.86370117 274.78939453 423.54370117 275.12939453 C424.39526367 277.41455078 424.39526367 277.41455078 425.16870117 280.19189453 C425.4290918 281.11099609 425.68948242 282.03009766 425.95776367 282.97705078 C426.24780273 284.04246094 426.24780273 284.04246094 426.54370117 285.12939453 C427.20370117 285.12939453 427.86370117 285.12939453 428.54370117 285.12939453 C428.87370117 288.75939453 429.20370117 292.38939453 429.54370117 296.12939453 C430.53370117 296.12939453 431.52370117 296.12939453 432.54370117 296.12939453 C432.21370117 297.11939453 431.88370117 298.10939453 431.54370117 299.12939453 C432.07564721 301.66957719 432.07564721 301.66957719 432.98120117 304.31689453 C433.41239258 305.66847656 433.41239258 305.66847656 433.85229492 307.04736328 C434.08045898 307.73443359 434.30862305 308.42150391 434.54370117 309.12939453 C435.20370117 309.12939453 435.86370117 309.12939453 436.54370117 309.12939453 C436.5649707 309.97244141 436.5649707 309.97244141 436.58666992 310.83251953 C437.0253577 318.56290952 438.82480517 325.77278966 440.81591797 333.22216797 C441.03675049 334.05651367 441.25758301 334.89085937 441.48510742 335.75048828 C441.68821533 336.49741943 441.89132324 337.24435059 442.10058594 338.01391602 C442.54370117 340.12939453 442.54370117 340.12939453 442.54370117 344.12939453 C443.20370117 344.12939453 443.86370117 344.12939453 444.54370117 344.12939453 C444.59341064 344.76538574 444.64312012 345.40137695 444.69433594 346.05664062 C445.33316064 353.67197771 446.37513914 361.19485645 447.48120117 368.75439453 C449.04360433 379.66448484 450.20804525 390.53974241 450.94775391 401.53613281 C451.01422119 402.50921387 451.08068848 403.48229492 451.14916992 404.48486328 C451.20226318 405.33717529 451.25535645 406.1894873 451.31005859 407.06762695 C451.43100635 409.19038508 451.43100635 409.19038508 452.54370117 411.12939453 C452.6327261 412.48784646 452.66130249 413.85055428 452.65722656 415.21191406 C452.65715103 416.05263458 452.6570755 416.8933551 452.65699768 417.759552 C452.6518364 418.66792816 452.64667511 419.57630432 452.64135742 420.51220703 C452.63994247 421.44161102 452.63852753 422.37101501 452.6370697 423.32858276 C452.6314617 426.30388577 452.61890785 429.27911418 452.60620117 432.25439453 C452.6011872 434.26871636 452.59662412 436.28303937 452.5925293 438.29736328 C452.58148967 443.24140255 452.56421966 448.18538588 452.54370117 453.12939453 C452.21370117 453.12939453 451.88370117 453.12939453 451.54370117 453.12939453 C451.47900635 453.93642822 451.41431152 454.74346191 451.34765625 455.57495117 C443.72756665 548.39614565 411.66775562 636.92181895 339.95385742 718.47314453 C337.70493081 720.95170222 335.62164766 723.50764503 333.54370117 726.12939453 C330.39764935 729.43678234 327.10208513 732.28268737 323.54370117 735.12939453 C321.18704084 737.42059207 318.89380979 739.7658202 316.61401367 742.13330078 C311.42881802 747.43843868 305.98896999 752.19247813 300.18774414 756.81054688 C298.33759856 758.29472959 296.5045046 759.79853107 294.67260742 761.30517578 C284.24303673 769.87192342 273.64883431 777.88823788 262.27026367 785.17236328 C259.42832127 787.09103375 259.42832127 787.09103375 256.94213867 789.80517578 C254.4043797 792.26440475 253.76749957 792.34591428 250.54370117 793.12939453 C248.98763835 793.95741364 247.46108657 794.8418987 245.95776367 795.76220703 C244.58539551 796.58918091 244.58539551 796.58918091 243.18530273 797.43286133 C241.69208496 798.33452026 241.69208496 798.33452026 240.16870117 799.25439453 C212.8279469 815.42647162 184.46139148 827.53821819 154.54370117 838.12939453 C154.54370117 838.78939453 154.54370117 839.44939453 154.54370117 840.12939453 C153.53307617 840.10876953 152.52245117 840.08814453 151.48120117 840.06689453 C147.7404286 840.12627187 144.23125219 840.52734538 140.54370117 841.12939453 C140.54370117 842.11939453 140.54370117 843.10939453 140.54370117 844.12939453 C139.70452148 843.84974854 139.70452148 843.84974854 138.84838867 843.56445312 C136.08328554 843.04248133 134.38316313 843.44910399 131.66870117 844.16845703 C130.69723145 844.41692383 129.72576172 844.66539062 128.72485352 844.92138672 C127.15018311 845.33372559 127.15018311 845.33372559 125.54370117 845.75439453 C111.65443761 849.24152973 97.6704318 851.81380737 83.54370117 854.12939453 C82.81070801 854.2529834 82.07771484 854.37657227 81.32250977 854.50390625 C77.07707311 855.20906537 72.82648187 855.72317127 68.54370117 856.12939453 C67.62331055 856.21817871 66.70291992 856.30696289 65.75463867 856.3984375 C17.92328688 860.79731957 -30.73258572 858.5714159 -77.59301758 847.68408203 C-80.20478917 847.17811809 -82.49383551 847.00004861 -85.14379883 847.06689453 C-88.45629883 847.12939453 -88.45629883 847.12939453 -91.45629883 845.12939453 C-94.35539885 844.19420098 -96.30216386 844.12939453 -99.45629883 844.12939453 C-99.45629883 843.13939453 -99.45629883 842.14939453 -99.45629883 841.12939453 C-100.05055664 841.01982422 -100.64481445 840.91025391 -101.25708008 840.79736328 C-106.99555582 839.69964553 -112.59038499 838.3267164 -118.20629883 836.71533203 C-120.39136649 836.04539069 -120.39136649 836.04539069 -122.45629883 836.12939453 C-122.45629883 835.46939453 -122.45629883 834.80939453 -122.45629883 834.12939453 C-123.02735352 833.97083984 -123.5984082 833.81228516 -124.18676758 833.64892578 C-146.57921551 827.20531199 -167.49808531 816.13891867 -188.45629883 806.12939453 C-188.45629883 805.46939453 -188.45629883 804.80939453 -188.45629883 804.12939453 C-189.17994629 803.85627441 -189.90359375 803.5831543 -190.64916992 803.30175781 C-195.37833095 801.32668117 -199.68036865 798.61590723 -204.08129883 796.00439453 C-205.07532715 795.414729 -206.06935547 794.82506348 -207.09350586 794.2175293 C-213.83352824 790.18204194 -220.24191815 785.93878479 -226.45629883 781.12939453 C-227.72792833 780.18165132 -229.00153291 779.23655502 -230.27661133 778.29345703 C-237.49672018 772.9421723 -244.57408327 767.50638784 -251.41723633 761.67626953 C-253.29529365 759.92793237 -253.29529365 759.92793237 -255.45629883 760.12939453 C-256.62398245 758.72130546 -257.78771027 757.30977508 -258.93286133 755.88330078 C-261.08624027 753.40415426 -263.5340688 751.3652817 -266.02661133 749.23486328 C-274.76414009 741.66327485 -283.80387897 733.80098543 -291.45629883 725.12939453 C-291.45629883 724.46939453 -291.45629883 723.80939453 -291.45629883 723.12939453 C-292.11629883 723.12939453 -292.77629883 723.12939453 -293.45629883 723.12939453 C-294.82842184 721.59744181 -296.12784343 720.00018373 -297.39379883 718.37939453 C-300.78618607 714.12527548 -304.29104884 710.09016935 -308.01879883 706.12939453 C-313.00373949 700.78097754 -317.2592641 695.10628288 -321.45629883 689.12939453 C-323.36164192 686.49606657 -325.2834909 683.87498537 -327.20629883 681.25439453 C-327.66649414 680.62364014 -328.12668945 679.99288574 -328.60083008 679.34301758 C-330.54449449 676.68712482 -332.49595146 674.08124491 -334.58911133 671.53955078 C-336.59086332 668.95569936 -338.0719574 666.33809157 -339.58129883 663.44189453 C-341.62604773 659.49861779 -341.62604773 659.49861779 -344.45629883 656.12939453 C-345.44629883 656.12939453 -346.43629883 656.12939453 -347.45629883 656.12939453 C-347.11791992 655.29794922 -347.11791992 655.29794922 -346.77270508 654.44970703 C-346.32254915 651.14856358 -347.58894726 649.74645927 -349.39379883 647.00439453 C-352.45629883 642.30251526 -352.45629883 642.30251526 -352.45629883 640.12939453 C-353.44629883 640.12939453 -354.43629883 640.12939453 -355.45629883 640.12939453 C-355.55942383 639.24251953 -355.66254883 638.35564453 -355.76879883 637.44189453 C-356.47345789 634.04671904 -357.41175543 631.90997355 -359.45629883 629.12939453 C-360.11629883 629.12939453 -360.77629883 629.12939453 -361.45629883 629.12939453 C-361.54266602 628.13681641 -361.6290332 627.14423828 -361.71801758 626.12158203 C-362.35431949 621.68864158 -364.177644 618.17011969 -366.26879883 614.25439453 C-366.99535173 612.84750917 -367.7206221 611.4399607 -368.44458008 610.03173828 C-368.79214355 609.36126465 -369.13970703 608.69079102 -369.49780273 608 C-374.45629883 598.32297578 -374.45629883 598.32297578 -374.45629883 594.12939453 C-375.11629883 593.79939453 -375.77629883 593.46939453 -376.45629883 593.12939453 C-377.27972662 591.31302064 -378.01112237 589.45462483 -378.69848633 587.58251953 C-379.12516602 586.42623047 -379.5518457 585.26994141 -379.99145508 584.07861328 C-380.43360352 582.85787109 -380.87575195 581.63712891 -381.33129883 580.37939453 C-381.98291992 578.61789062 -381.98291992 578.61789062 -382.64770508 576.82080078 C-390.45629883 555.50545027 -390.45629883 555.50545027 -390.45629883 549.12939453 C-392.10629883 549.45939453 -393.75629883 549.78939453 -395.45629883 550.12939453 C-395.12629883 549.13939453 -394.79629883 548.14939453 -394.45629883 547.12939453 C-394.10809842 545.46577037 -393.77225391 543.79944282 -393.45629883 542.12939453 C-394.11629883 542.12939453 -394.77629883 542.12939453 -395.45629883 542.12939453 C-395.39958008 541.05302734 -395.34286133 539.97666016 -395.28442383 538.86767578 C-395.28944397 533.14094688 -396.80862352 527.83721224 -398.20629883 522.31689453 C-401.50272432 508.69627455 -403.68536482 495.02305145 -405.45629883 481.12939453 C-405.62564941 479.82663574 -405.795 478.52387695 -405.96948242 477.18164062 C-407.28606982 466.76403413 -408.049791 456.36393819 -408.58129883 445.87939453 C-408.62365662 445.07966217 -408.6660144 444.27992981 -408.70965576 443.45596313 C-409.36590323 431.00729336 -409.72250429 418.59668361 -409.45629883 406.12939453 C-410.11629883 406.12939453 -410.77629883 406.12939453 -411.45629883 406.12939453 C-411.08129883 403.69189453 -411.08129883 403.69189453 -410.45629883 401.12939453 C-409.79629883 400.79939453 -409.13629883 400.46939453 -408.45629883 400.12939453 C-408.04925865 397.7658981 -407.77143393 395.48938915 -407.56176758 393.10595703 C-407.41249632 391.60820519 -407.26290577 390.11048515 -407.11303711 388.61279297 C-407.03700256 387.82062378 -406.96096802 387.02845459 -406.88262939 386.21228027 C-403.60897889 352.52204108 -396.35684167 320.17918155 -385.45629883 288.12939453 C-385.02945801 286.8718335 -385.02945801 286.8718335 -384.59399414 285.58886719 C-377.77613025 265.75841361 -369.09995285 246.66494333 -359.16455078 228.21240234 C-358.67946045 227.30973633 -358.19437012 226.40707031 -357.69458008 225.47705078 C-357.26185791 224.68306885 -356.82913574 223.88908691 -356.38330078 223.07104492 C-355.31268379 221.18718421 -355.31268379 221.18718421 -355.45629883 219.12939453 C-354.47161711 218.11430738 -353.46945997 217.11605785 -352.45629883 216.12939453 C-350.97649131 213.66692504 -349.55010447 211.19550589 -348.14379883 208.69189453 C-337.73648778 190.6091427 -325.22198755 172.50635622 -311.15551758 157.04345703 C-309.04106647 154.66166153 -307.07126106 152.17849105 -305.08129883 149.69189453 C-301.44055555 145.19853274 -297.54360323 141.15733005 -293.39379883 137.13720703 C-291.70367399 135.38574702 -290.41749481 133.75169975 -289.14379883 131.69189453 C-287.41655918 129.06904914 -286.37140099 128.17050245 -283.45629883 127.12939453 C-283.45629883 125.14939453 -283.45629883 123.16939453 -283.45629883 121.12939453 C-282.71379883 121.00564453 -281.97129883 120.88189453 -281.20629883 120.75439453 C-275.37152211 119.42830891 -272.1004603 116.10746589 -267.89379883 112.06689453 C-261.95747222 106.46425083 -255.847307 101.21140103 -249.45629883 96.12939453 C-248.22238271 95.12782829 -246.98936558 94.12515384 -245.75708008 93.12158203 C-239.70373892 88.20919663 -233.70428672 83.37098692 -227.09301758 79.21533203 C-225.29497459 78.10025636 -225.29497459 78.10025636 -223.45629883 76.12939453 C-221.70263094 74.95745867 -219.92900784 73.81519926 -218.14379883 72.69189453 C-217.19891602 72.09505859 -216.2540332 71.49822266 -215.28051758 70.88330078 C-213.44344846 69.74243766 -211.59229467 68.62384703 -209.72583008 67.53173828 C-207.43414824 66.11570768 -205.86948772 64.62128607 -204.14379883 62.56689453 C-202.45629883 61.12939453 -202.45629883 61.12939453 -200.36254883 60.83642578 C-196.17821121 59.81846192 -192.91370955 57.62185867 -189.26879883 55.37939453 C-183.12262722 51.67360489 -176.96642565 48.16852008 -170.45629883 45.12939453 C-170.45629883 43.80939453 -170.45629883 42.48939453 -170.45629883 41.12939453 C-169.61711914 41.36142578 -168.77793945 41.59345703 -167.91333008 41.83251953 C-163.58626687 42.20410914 -160.85077881 40.86736487 -157.14379883 38.87939453 C-156.51151367 38.56615234 -155.87922852 38.25291016 -155.2277832 37.93017578 C-151.31271237 35.98264895 -151.31271237 35.98264895 -149.45629883 32.12939453 C-147.69286133 32.22220703 -147.69286133 32.22220703 -145.89379883 32.31689453 C-141.39715175 32.34081287 -138.49079191 31.02797951 -134.45629883 29.12939453 C-133.46629883 29.12939453 -132.47629883 29.12939453 -131.45629883 29.12939453 C-131.45629883 28.13939453 -131.45629883 27.14939453 -131.45629883 26.12939453 C-130.5874707 26.17193359 -129.71864258 26.21447266 -128.82348633 26.25830078 C-125.24103958 26.12115375 -122.90273657 25.38110208 -119.58129883 24.06689453 C-95.15931176 15.01413702 -69.52596358 9.21970537 -43.79223633 5.42163086 C-42.38651367 5.2073645 -42.38651367 5.2073645 -40.95239258 4.98876953 C-40.12924561 4.86985352 -39.30609863 4.7509375 -38.45800781 4.62841797 C-36.24201775 4.25848794 -36.24201775 4.25848794 -34.45629883 2.12939453 C-33.79629883 2.45939453 -33.13629883 2.78939453 -32.45629883 3.12939453 C-30.43202545 3.08860405 -28.40902902 2.97448897 -26.38989258 2.82470703 C-25.18268555 2.73576172 -23.97547852 2.64681641 -22.73168945 2.55517578 C-21.46518555 2.45591797 -20.19868164 2.35666016 -18.89379883 2.25439453 C-17.62342773 2.16287109 -16.35305664 2.07134766 -15.04418945 1.97705078 C-9.69600358 1.57114891 -5.06937735 0.00481038 0 0 Z M191.54370117 34.12939453 C191.87370117 34.78939453 192.20370117 35.44939453 192.54370117 36.12939453 C193.53370117 35.46939453 194.52370117 34.80939453 195.54370117 34.12939453 C194.22370117 34.12939453 192.90370117 34.12939453 191.54370117 34.12939453 Z M-279.45629883 121.12939453 C-280.11629883 121.78939453 -280.77629883 122.44939453 -281.45629883 123.12939453 C-280.46629883 123.12939453 -279.47629883 123.12939453 -278.45629883 123.12939453 C-278.78629883 122.46939453 -279.11629883 121.80939453 -279.45629883 121.12939453 Z M-29.45629883 163.12939453 C-29.45629883 163.78939453 -29.45629883 164.44939453 -29.45629883 165.12939453 C-30.44629883 164.79939453 -31.43629883 164.46939453 -32.45629883 164.12939453 C-33.96055843 168.14864618 -35.45880539 172.17011757 -36.95629883 176.19189453 C-37.3662207 177.28695312 -37.77614258 178.38201172 -38.19848633 179.51025391 C-41.36069777 188.01468619 -44.36572379 196.56850123 -47.33522034 205.14201355 C-49.64982776 211.8218712 -51.99081927 218.49165622 -54.35864258 225.15283203 C-54.68317917 226.06608246 -55.00771576 226.97933289 -55.34208679 227.92025757 C-56.01197288 229.8048189 -56.68197272 231.68933979 -57.3520813 233.57382202 C-64.01292999 252.31220311 -70.5791602 271.08142477 -77.07666016 289.87701416 C-82.60571597 305.86512607 -88.23203545 321.81642818 -93.91799927 337.74935913 C-97.82198366 348.69029453 -101.69611935 359.63803922 -105.45629883 370.62939453 C-109.93988687 383.73357337 -114.58240643 396.77924444 -119.23419189 409.82446289 C-124.92309574 425.77948738 -130.54622872 441.75648152 -136.11547852 457.75366211 C-136.39414764 458.55286575 -136.67281677 459.3520694 -136.95993042 460.17549133 C-137.47553033 461.6543766 -137.9901931 463.13358909 -138.50369263 464.61320496 C-139.42557125 467.25653014 -140.35885352 469.88671196 -141.40209961 472.48486328 C-143.0608299 476.64590231 -144.52478342 480.87564043 -146.01879883 485.09814453 C-146.36605011 486.07741409 -146.71330139 487.05668365 -147.07107544 488.06562805 C-148.20075229 491.25310237 -149.32867792 494.44119235 -150.45629883 497.62939453 C-150.84267517 498.72093842 -151.22905151 499.8124823 -151.62713623 500.93710327 C-156.3773245 514.35941054 -161.09733617 527.79048994 -165.71923828 541.25756836 C-174.45380228 566.70711866 -183.3414102 592.10367188 -192.39379883 617.44189453 C-192.70901489 618.32445923 -193.02423096 619.20702393 -193.34899902 620.11633301 C-196.26255571 628.26922337 -199.18501335 636.41826214 -202.17504883 644.54345703 C-202.55927002 645.58848389 -202.94349121 646.63351074 -203.33935547 647.71020508 C-204.01341794 649.53636969 -204.69186601 651.36092536 -205.37597656 653.18334961 C-206.9920722 657.53870771 -206.9920722 657.53870771 -207.45629883 662.12939453 C-203.24058632 663.31555487 -199.17852572 663.21992255 -194.83227539 663.15112305 C-193.9636235 663.1415155 -193.09497162 663.13190796 -192.19999695 663.12200928 C-189.33222241 663.08905981 -186.46460213 663.04871198 -183.59692383 663.00830078 C-181.60724428 662.98399571 -179.61755905 662.96015234 -177.62786865 662.93675232 C-172.39338699 662.87394994 -167.15900618 662.80487233 -161.92462158 662.73449707 C-156.58236276 662.66377893 -151.24003249 662.59898278 -145.89770508 662.53369141 C-135.41715781 662.40472863 -124.93670751 662.26913777 -114.45629883 662.12939453 C-114.12629883 661.13939453 -113.79629883 660.14939453 -113.45629883 659.12939453 C-112.46629883 659.12939453 -111.47629883 659.12939453 -110.45629883 659.12939453 C-107.95483872 651.79655866 -105.45511765 644.46313087 -102.95629883 637.12939453 C-102.58970154 636.05361145 -102.22310425 634.97782837 -101.84539795 633.8694458 C-97.40472055 620.83499754 -92.96751019 607.80020988 -88.6652832 594.71923828 C-88.39264648 593.89294922 -88.12000977 593.06666016 -87.83911133 592.21533203 C-87.61626465 591.53519043 -87.39341797 590.85504883 -87.16381836 590.15429688 C-86.65334468 588.69333459 -86.09887029 587.24748958 -85.51757812 585.81323242 C-84.25167082 582.61191681 -83.17249757 579.37107214 -82.09301758 576.10205078 C-81.62040275 574.67560476 -81.14774444 573.24917315 -80.67504883 571.82275391 C-80.42625977 571.07018311 -80.1774707 570.3176123 -79.92114258 569.54223633 C-75.34635248 555.71010558 -70.68988783 541.90793075 -65.95629883 528.12939453 C-61.57075723 515.35498148 -57.2318183 502.56607452 -52.95629883 489.75439453 C-52.71258545 489.02575195 -52.46887207 488.29710937 -52.21777344 487.54638672 C-49.67049298 479.92624278 -47.18098856 472.29397929 -44.80786133 464.61767578 C-42.94388643 458.59466113 -40.88642049 452.70578962 -38.60864258 446.82666016 C-36.74347308 441.97217847 -35.07756393 437.07027298 -33.45629883 432.12939453 C-32.88422595 430.4103635 -32.3112823 428.69162205 -31.73754883 426.97314453 C-31.44493164 426.09529297 -31.15231445 425.21744141 -30.85083008 424.31298828 C-29.95890299 421.63720703 -29.06697591 418.96142578 -28.17504883 416.28564453 C-27.88702393 415.42011963 -27.59899902 414.55459473 -27.30224609 413.6628418 C-26.75679779 412.0293304 -26.208053 410.39691424 -25.65527344 408.76586914 C-23.96942832 403.77609025 -22.45755893 398.75773661 -21.01879883 393.69189453 C-19.43034016 388.18523781 -17.66301145 382.88732526 -15.43286133 377.60205078 C-12.82670803 371.00327063 -10.73376419 364.11029109 -9.45629883 357.12939453 C-9.78629883 357.12939453 -10.11629883 357.12939453 -10.45629883 357.12939453 C-10.78629883 355.47939453 -11.11629883 353.82939453 -11.45629883 352.12939453 C-10.79629883 352.12939453 -10.13629883 352.12939453 -9.45629883 352.12939453 C-9.12629883 353.44939453 -8.79629883 354.76939453 -8.45629883 356.12939453 C-8.25522018 355.50332306 -8.05414154 354.87725159 -7.8469696 354.23220825 C-5.69485956 347.5317215 -3.54222743 340.83140262 -1.38934326 334.13116455 C-0.56140984 331.55435701 0.26633965 328.97749048 1.09393311 326.40057373 C9.21962048 301.09975004 9.21962048 301.09975004 13.18823242 288.91064453 C13.45080338 288.10335907 13.71337433 287.29607361 13.98390198 286.46432495 C15.16722163 282.82688433 16.35344022 279.19043927 17.54492188 275.55566406 C18.15146606 273.69337158 18.15146606 273.69337158 18.77026367 271.79345703 C19.11653809 270.73594238 19.4628125 269.67842773 19.81958008 268.58886719 C20.63784597 266.23694164 20.63784597 266.23694164 20.54370117 264.12939453 C22.94754542 266.53323878 23.22165287 268.10907194 24.04370117 271.37939453 C25.05711057 275.36694022 26.24205675 279.22694743 27.54370117 283.12939453 C28.61675918 286.49456126 29.67270214 289.86509333 30.73120117 293.23486328 C31.35333195 295.20695213 31.9757359 297.17895481 32.59838867 299.15087891 C33.57512122 302.24444025 34.55044788 305.33840682 35.52124023 308.43383789 C36.46182592 311.43142087 37.4084427 314.42704164 38.35620117 317.42236328 C38.79065552 318.81457344 38.79065552 318.81457344 39.23388672 320.23490906 C39.5075708 321.0962294 39.78125488 321.95754974 40.06323242 322.8449707 C40.30146729 323.60186691 40.53970215 324.35876312 40.78515625 325.13859558 C41.56070654 327.39550264 41.56070654 327.39550264 43.54370117 330.12939453 C44.05581995 331.92743793 44.50698629 333.74323981 44.91870117 335.56689453 C46.42739743 341.8941819 48.41045219 347.98909678 50.54370117 354.12939453 C51.52354675 357.06893125 52.50181121 360.00899169 53.47990417 362.94911194 C56.66038655 372.50946561 59.84269371 382.06921081 63.02615643 391.62857246 C64.78421145 396.90786983 66.54173059 402.1873441 68.29785156 407.46728516 C76.95617923 433.49784773 85.68682801 459.5012692 94.59900093 485.44614792 C95.63253869 488.45699162 96.65552307 491.46981414 97.64897156 494.49417114 C98.456087 497.06742549 98.456087 497.06742549 99.54370117 499.12939453 C100.06684873 500.62672865 100.57198462 502.13038412 101.06713867 503.63720703 C101.51573242 504.99458984 101.51573242 504.99458984 101.97338867 506.37939453 C102.5958803 508.2725922 103.21827854 510.16582058 103.84057617 512.05908203 C105.1656497 516.06827887 106.4935515 520.06492063 108.00463867 524.00830078 C110.1300925 529.58533428 111.92965967 535.2735311 113.79370117 540.94189453 C118.02860521 553.76246376 122.44866815 566.51413552 126.91870117 579.25439453 C131.9598717 593.622857 136.87932035 608.02368411 141.65460205 622.48260498 C146.05146705 635.78564609 150.69492402 648.98332437 155.54370117 662.12939453 C156.63207275 662.12359375 157.72044434 662.11779297 158.84179688 662.11181641 C169.01950216 662.07470562 179.17454437 662.24325753 189.34689331 662.55691528 C210.08125372 663.18720757 230.80160829 663.24055259 251.54370117 663.12939453 C250.99011753 659.16204507 250.12731901 655.80223433 248.54370117 652.12939453 C247.88807219 650.36512325 247.2399397 648.5980524 246.59838867 646.82861328 C246.24389648 645.85214844 245.8894043 644.87568359 245.52416992 643.86962891 C245.15936523 642.86222656 244.79456055 641.85482422 244.41870117 640.81689453 C244.04616211 639.79015625 243.67362305 638.76341797 243.28979492 637.70556641 C242.37370213 635.18043883 241.45836213 632.65504103 240.54370117 630.12939453 C239.55370117 630.12939453 238.56370117 630.12939453 237.54370117 630.12939453 C237.85718506 628.86796631 237.85718506 628.86796631 238.17700195 627.58105469 C238.62025652 623.40879564 237.79271488 620.85449606 236.41088867 616.90283203 C236.1771756 616.23273102 235.94346252 615.56263 235.70266724 614.8722229 C235.20670675 613.4629871 234.70371051 612.05620981 234.1940918 610.65185547 C233.42106093 608.51092993 232.68048402 606.36061716 231.94213867 604.20751953 C231.45447285 602.83444116 230.9649505 601.46202046 230.47338867 600.09033203 C230.03236816 598.8507373 229.59134766 597.61114258 229.13696289 596.33398438 C227.40881333 592.85808933 225.73024756 591.28174041 222.54370117 589.12939453 C222.75736328 588.29666016 222.97102539 587.46392578 223.19116211 586.60595703 C223.61600023 582.41641769 222.62225751 579.36265025 221.18432617 575.50439453 C220.92389526 574.77202576 220.66346436 574.03965698 220.3951416 573.28509521 C219.54132689 570.89482893 218.66791698 568.51226658 217.79370117 566.12939453 C217.19916831 564.47907727 216.60575402 562.82835662 216.01342773 561.17724609 C214.50120361 556.97314644 212.97201256 552.77544285 211.43774414 548.5793457 C210.30190984 545.46681233 209.17621793 542.35066772 208.05108643 539.23425293 C206.8034965 535.78085913 205.54964229 532.32975872 204.29370117 528.87939453 C204.05800415 528.23115723 203.82230713 527.58291992 203.57946777 526.91503906 C202.91979443 525.10507987 202.25531997 523.29687265 201.59057617 521.48876953 C201.21771484 520.47266602 200.84485352 519.4565625 200.46069336 518.40966797 C199.74540831 516.20036061 199.74540831 516.20036061 198.54370117 515.12939453 C198.17245117 513.56318359 198.17245117 513.56318359 197.79370117 511.96533203 C196.37064407 506.05964507 194.27890047 500.38533582 192.23022461 494.67285156 C191.53862616 492.74021266 190.85732731 490.80413639 190.17651367 488.86767578 C189.74081055 487.64693359 189.30510742 486.42619141 188.85620117 485.16845703 C188.46045898 484.05680176 188.0647168 482.94514648 187.65698242 481.79980469 C186.70327144 479.03525164 186.70327144 479.03525164 184.54370117 477.12939453 C184.54370117 476.13939453 184.54370117 475.14939453 184.54370117 474.12939453 C183.84986257 471.93081279 183.09656038 469.75083016 182.31323242 467.58251953 C182.0809343 466.93426208 181.84863617 466.28600464 181.60929871 465.61810303 C180.86272174 463.53689926 180.1098192 461.4580579 179.35620117 459.37939453 C178.38112311 456.67713703 177.40890992 453.97386066 176.43823242 451.27001953 C176.19646271 450.59773315 175.95469299 449.92544678 175.70559692 449.23278809 C173.61550518 443.39315235 171.65310925 437.51584113 169.72607422 431.62060547 C168.67887679 428.52852964 167.55699085 425.47556378 166.40049744 422.42306519 C164.59531348 417.59053073 162.89168451 412.72078756 161.16479492 407.85986328 C160.31800142 405.48413677 159.47098981 403.10848799 158.6237793 400.73291016 C157.2963057 397.00942439 155.97006269 393.28552205 154.64746094 389.56030273 C153.36532974 385.95047172 152.07803288 382.34251872 150.78979492 378.73486328 C150.19599281 377.05676826 150.19599281 377.05676826 149.5901947 375.34477234 C149.21963455 374.30972061 148.8490744 373.27466888 148.46728516 372.20825195 C148.14324203 371.29750412 147.81919891 370.38675629 147.4853363 369.44841003 C146.54901574 366.91970831 146.54901574 366.91970831 144.54370117 364.12939453 C144.21036784 362.12939453 143.87703451 360.12939453 143.54370117 358.12939453 C142.88370117 357.13939453 142.22370117 356.14939453 141.54370117 355.12939453 C141.19766174 353.46531953 140.86691255 351.79805366 140.54370117 350.12939453 C139.69547862 347.57625172 138.81935931 345.04832164 137.90307617 342.52001953 C137.35787236 340.99603182 136.8129616 339.47193925 136.26831055 337.94775391 C135.98463623 337.1568335 135.70096191 336.36591309 135.40869141 335.55102539 C133.98224107 331.5575281 132.58425877 327.55412249 131.18432617 323.55126953 C130.62064287 321.94315497 130.05684053 320.33508214 129.49291992 318.72705078 C128.634469 316.27850899 127.77636 313.82984971 126.91918945 311.38085938 C126.07107238 308.95814287 125.22157238 306.53591503 124.37182617 304.11376953 C124.11661194 303.38357605 123.86139771 302.65338257 123.59844971 301.90106201 C122.3249698 298.27495235 120.98309068 294.69239305 119.54370117 291.12939453 C118.95843958 289.51179197 118.38308051 287.89057597 117.81713867 286.26611328 C117.35307617 284.93676758 117.35307617 284.93676758 116.87963867 283.58056641 C116.5625293 282.66855469 116.24541992 281.75654297 115.91870117 280.81689453 C115.59385742 279.88554687 115.26901367 278.95419922 114.93432617 277.99462891 C114.13643834 275.70656822 113.33959607 273.41814905 112.54370117 271.12939453 C111.55370117 271.12939453 110.56370117 271.12939453 109.54370117 271.12939453 C109.76928711 270.31212891 109.99487305 269.49486328 110.22729492 268.65283203 C110.64156032 264.03965438 109.34702301 260.96741192 107.60620117 256.75439453 C107.31551758 256.01833984 107.02483398 255.28228516 106.7253418 254.52392578 C106.01103119 252.72058424 105.27911601 250.92423307 104.54370117 249.12939453 C103.05870117 250.11939453 103.05870117 250.11939453 101.54370117 251.12939453 C101.54370117 247.12939453 101.54370117 247.12939453 101.79370117 243.94189453 C101.51872009 239.74843308 100.40246953 237.21322628 98.61010742 233.48486328 C97.58165211 231.21322022 96.84816773 229.02583645 96.16870117 226.62939453 C94.80606985 221.8526979 93.20276994 217.1842876 91.54370117 212.50439453 C91.29442871 211.79992187 91.04515625 211.09544922 90.78833008 210.36962891 C89.09155719 205.60308788 87.33032822 200.86287029 85.54370117 196.12939453 C85.00822191 194.70243237 84.47306954 193.2753475 83.93823242 191.84814453 C83.54667969 190.80400391 83.54667969 190.80400391 83.1472168 189.73876953 C81.94604492 186.53564453 80.74487305 183.33251953 79.54370117 180.12939453 C78.88370117 180.12939453 78.22370117 180.12939453 77.54370117 180.12939453 C77.50631836 179.57251953 77.46893555 179.01564453 77.43041992 178.44189453 C76.94809481 172.84314029 75.71128238 168.31274089 73.54370117 163.12939453 C72.88370117 163.12939453 72.22370117 163.12939453 71.54370117 163.12939453 C37.87703451 163.12939453 4.21036784 163.12939453 -29.45629883 163.12939453 Z M77.54370117 177.12939453 C78.54370117 179.12939453 78.54370117 179.12939453 78.54370117 179.12939453 Z M101.54370117 243.12939453 C102.54370117 245.12939453 102.54370117 245.12939453 102.54370117 245.12939453 Z M102.54370117 246.12939453 C103.54370117 248.12939453 103.54370117 248.12939453 103.54370117 248.12939453 Z M-392.45629883 546.12939453 C-391.45629883 548.12939453 -391.45629883 548.12939453 -391.45629883 548.12939453 Z M223.54370117 586.12939453 C224.54370117 588.12939453 224.54370117 588.12939453 224.54370117 588.12939453 Z M224.54370117 589.12939453 C225.54370117 591.12939453 225.54370117 591.12939453 225.54370117 591.12939453 Z M238.54370117 627.12939453 C239.54370117 629.12939453 239.54370117 629.12939453 239.54370117 629.12939453 Z " fill="#010101" transform="translate(491.456298828125,79.87060546875)"/>
<path d="M0 0 C2 3 2 3 2 7 C-28.69 7 -59.38 7 -91 7 C-91 6.67 -91 6.34 -91 6 C-47.44 5.505 -47.44 5.505 -3 5 C-2.67 3.68 -2.34 2.36 -2 1 C-1.505 1.495 -1.505 1.495 -1 2 C-0.67 1.34 -0.34 0.68 0 0 Z " fill="#757474" transform="translate(379,736)"/>
<path d="M0 0 C0.33 0.99 0.66 1.98 1 3 C32.68 3.33 64.36 3.66 97 4 C97 4.33 97 4.66 97 5 C64.66 5 32.32 5 -1 5 C-0.67 3.35 -0.34 1.7 0 0 Z " fill="#1B1919" transform="translate(283,739)"/>
<path d="M0 0 C0.33 0 0.66 0 1 0 C1.02804921 1.58322194 1.04684498 3.166607 1.0625 4.75 C1.07410156 5.63171875 1.08570312 6.5134375 1.09765625 7.421875 C1.01561446 10.42788637 0.78783696 13.33997055 0.5 16.33007812 C-0.09226553 23.32676889 -0.12662202 30.27896412 -0.09765625 37.296875 C-0.0962413 38.61165833 -0.09482635 39.92644165 -0.09336853 41.28106689 C-0.08959701 44.73329663 -0.07981433 48.18548257 -0.06866455 51.63769531 C-0.05833332 55.17772835 -0.05384613 58.71776865 -0.04882812 62.2578125 C-0.03818578 69.1718927 -0.02117606 76.08594423 0 83 C-0.33 83 -0.66 83 -1 83 C-3.38776806 43.16047091 -3.38776806 43.16047091 -3 25 C-3.66 25 -4.32 25 -5 25 C-4.625 22.5625 -4.625 22.5625 -4 20 C-3.34 19.67 -2.68 19.34 -2 19 C-1.53205677 17.06643337 -1.53205677 17.06643337 -1.3671875 14.74609375 C-1.24150391 13.46508789 -1.24150391 13.46508789 -1.11328125 12.15820312 C-1.03464844 11.26037109 -0.95601563 10.36253906 -0.875 9.4375 C-0.78863281 8.53580078 -0.70226562 7.63410156 -0.61328125 6.70507812 C-0.40048341 4.47070082 -0.19645533 2.23586385 0 0 Z " fill="#7D7B7B" transform="translate(85,461)"/>
<path d="M0 0 C2.39073445 3.82517513 2.55966552 7.59665524 3 12 C3.66 12 4.32 12 5 12 C5.06058594 12.72445313 5.12117187 13.44890625 5.18359375 14.1953125 C5.6961296 20.21360753 5.6961296 20.21360753 6.5625 26.1875 C7.12987813 29.83493084 7.06361835 33.31013575 7 37 C6.67 37 6.34 37 6 37 C5.85377197 36.16227051 5.70754395 35.32454102 5.55688477 34.46142578 C5.01332357 31.35616267 4.46696682 28.25140831 3.91870117 25.14697266 C3.68189934 23.80276927 3.44621575 22.45836839 3.21166992 21.11376953 C2.87451914 19.18210225 2.53302389 17.25119482 2.19140625 15.3203125 C1.98717041 14.15773926 1.78293457 12.99516602 1.57250977 11.79736328 C1.13810144 9.06054011 1.13810144 9.06054011 0 7 C-0.04022391 4.6670134 -0.04320247 2.33293334 0 0 Z " fill="#61605F" transform="translate(931,412)"/>
<path d="M0 0 C2.0625 0.4375 2.0625 0.4375 4 1 C3.64008282 6.04806914 0.95601959 8.52239866 -2.5625 11.8125 C-3.08263672 12.31458984 -3.60277344 12.81667969 -4.13867188 13.33398438 C-5.4168857 14.56529127 -6.70727147 15.7839407 -8 17 C-8.66 16.67 -9.32 16.34 -10 16 C-4.9977221 8.33257403 -4.9977221 8.33257403 -1 7 C-1.020625 6.030625 -1.04125 5.06125 -1.0625 4.0625 C-1 1 -1 1 0 0 Z " fill="#373636" transform="translate(209,200)"/>
<path d="M0 0 C0.33 0 0.66 0 1 0 C1.35931559 20.28136882 1.35931559 20.28136882 -1 25 C-2.32 25 -3.64 25 -5 25 C-4.625 22.5625 -4.625 22.5625 -4 20 C-3.34 19.67 -2.68 19.34 -2 19 C-1.53205677 17.06643337 -1.53205677 17.06643337 -1.3671875 14.74609375 C-1.24150391 13.46508789 -1.24150391 13.46508789 -1.11328125 12.15820312 C-1.03464844 11.26037109 -0.95601563 10.36253906 -0.875 9.4375 C-0.78863281 8.53580078 -0.70226562 7.63410156 -0.61328125 6.70507812 C-0.40048341 4.47070082 -0.19645533 2.23586385 0 0 Z " fill="#7A7878" transform="translate(85,461)"/>
<path d="M0 0 C2 3 2 3 2 7 C-3.94 7 -9.88 7 -16 7 C-16 6.67 -16 6.34 -16 6 C-9.565 5.505 -9.565 5.505 -3 5 C-2.67 3.68 -2.34 2.36 -2 1 C-1.67 1.33 -1.34 1.66 -1 2 C-0.67 1.34 -0.34 0.68 0 0 Z " fill="#5B5959" transform="translate(379,736)"/>
<path d="M0 0 C0.33 0.99 0.66 1.98 1 3 C8.59 3.33 16.18 3.66 24 4 C24 4.33 24 4.66 24 5 C15.75 5 7.5 5 -1 5 C-0.67 3.35 -0.34 1.7 0 0 Z " fill="#312F2F" transform="translate(283,739)"/>
<path d="M0 0 C0.99 0.33 1.98 0.66 3 1 C3 2.98 3 4.96 3 7 C2.01 7 1.02 7 0 7 C-1.70532323 8.94009522 -1.70532323 8.94009522 -3 11 C-2.69078116 9.54096742 -2.37751201 8.08279278 -2.0625 6.625 C-1.88847656 5.81289063 -1.71445312 5.00078125 -1.53515625 4.1640625 C-1 2 -1 2 0 0 Z " fill="#464545" transform="translate(512,344)"/>
<path d="M0 0 C0.33 0 0.66 0 1 0 C1 4.29 1 8.58 1 13 C0.01 12.34 -0.98 11.68 -2 11 C-1.85957123 9.35369672 -1.71250671 7.70795821 -1.5625 6.0625 C-1.48128906 5.14597656 -1.40007812 4.22945312 -1.31640625 3.28515625 C-1 1 -1 1 0 0 Z " fill="#3C3B3A" transform="translate(82,529)"/>
<path d="M0 0 C2.0625 0.4375 2.0625 0.4375 4 1 C3.6875 2.875 3.6875 2.875 3 5 C2.01 5.66 1.02 6.32 0 7 C-0.38133299 5.0085944 -0.71325582 3.00720923 -1 1 C-0.67 0.67 -0.34 0.34 0 0 Z " fill="#484746" transform="translate(209,200)"/>
<path d="M0 0 C2 3 2 3 2 7 C0.35 7.33 -1.3 7.66 -3 8 C-2.09456151 5.28368454 -1.07525194 2.65228812 0 0 Z M0 4 C1 6 1 6 1 6 Z " fill="#514F4E" transform="translate(99,622)"/>
<path d="M0 0 C0.99 0.66 1.98 1.32 3 2 C2.67 3.32 2.34 4.64 2 6 C0.68 6 -0.64 6 -2 6 C-1.125 1.125 -1.125 1.125 0 0 Z " fill="#494746" transform="translate(82,480)"/>
<path d="M0 0 C0 2.31 0 4.62 0 7 C-0.99 7 -1.98 7 -3 7 C-3 5.02 -3 3.04 -3 1 C-1 0 -1 0 0 0 Z " fill="#3E3D3C" transform="translate(83,472)"/>
<path d="M0 0 C2 3 2 3 1.625 5.6875 C1.41875 6.450625 1.2125 7.21375 1 8 C0.01 7.34 -0.98 6.68 -2 6 C-1.34 4.02 -0.68 2.04 0 0 Z " fill="#484645" transform="translate(602,345)"/>
<path d="M0 0 C0.99 0 1.98 0 3 0 C2.34 2.64 1.68 5.28 1 8 C-0.42944945 5.64561267 -1.08661261 4.51967567 -0.625 1.75 C-0.41875 1.1725 -0.2125 0.595 0 0 Z " fill="#3D3B3A" transform="translate(505,352)"/>
<path d="M0 0 C0.33 0 0.66 0 1 0 C1 2.97 1 5.94 1 9 C0.34 8.67 -0.32 8.34 -1 8 C-1.04241723 5.66705225 -1.04092937 3.33297433 -1 1 C-0.67 0.67 -0.34 0.34 0 0 Z " fill="#3F3D3D" transform="translate(81,498)"/>
<path d="M0 0 C0.33 0 0.66 0 1 0 C1 3.96 1 7.92 1 12 C0.67 12 0.34 12 0 12 C0 8.04 0 4.08 0 0 Z " fill="#3C3B3B" transform="translate(943,472)"/>
<path d="M0 0 C0.99 0.495 0.99 0.495 2 1 C1.67 2.65 1.34 4.3 1 6 C0.67 6 0.34 6 0 6 C0 4.02 0 2.04 0 0 Z " fill="#3F3E3D" transform="translate(80,488)"/>
<path d="M0 0 C0.99 0 1.98 0 3 0 C2.67 1.32 2.34 2.64 2 4 C1.34 2.68 0.68 1.36 0 0 Z " fill="#3F3C3C" transform="translate(88,594)"/>
<path d="M0 0 C1.65 0 3.3 0 5 0 C5 0.66 5 1.32 5 2 C3.35 2 1.7 2 0 2 C0 1.34 0 0.68 0 0 Z " fill="#413F3F" transform="translate(555,80)"/>
<path d="M0 0 C0.66 0 1.32 0 2 0 C1.67 1.65 1.34 3.3 1 5 C0.67 5 0.34 5 0 5 C0 3.35 0 1.7 0 0 Z " fill="#363433" transform="translate(416,624)"/>
<path d="M0 0 C0.99 0 1.98 0 3 0 C3.33 0.99 3.66 1.98 4 3 C2.35 2.67 0.7 2.34 -1 2 C-0.67 1.34 -0.34 0.68 0 0 Z " fill="#3B3939" transform="translate(661,104)"/>
<path d="M0 0 C0.99 0.495 0.99 0.495 2 1 C1.67 2.32 1.34 3.64 1 5 C0.67 3.35 0.34 1.7 0 0 Z " fill="#3F3D3D" transform="translate(80,507)"/>
<path d="M0 0 C0.66 0 1.32 0 2 0 C2.33 1.32 2.66 2.64 3 4 C2.34 4 1.68 4 1 4 C0.67 2.68 0.34 1.36 0 0 Z " fill="#393837" transform="translate(640,461)"/>
<path d="M0 0 C1.32 0 2.64 0 4 0 C4 0.66 4 1.32 4 2 C2.68 1.67 1.36 1.34 0 1 C0 0.67 0 0.34 0 0 Z " fill="#373636" transform="translate(764,160)"/>
<path d="M0 0 C0 0.99 0 1.98 0 3 C-0.99 2.67 -1.98 2.34 -3 2 C-2.01 1.34 -1.02 0.68 0 0 Z " fill="#3C3C3B" transform="translate(339,113)"/>
<path d="M0 0 C2.31 0 4.62 0 7 0 C7 0.33 7 0.66 7 1 C4.69 1 2.38 1 0 1 C0 0.67 0 0.34 0 0 Z " fill="#434040" transform="translate(475,80)"/>
<path d="M0 0 C1.98 0 3.96 0 6 0 C6 0.33 6 0.66 6 1 C4.02 1 2.04 1 0 1 C0 0.67 0 0.34 0 0 Z " fill="#3C3939" transform="translate(448,935)"/>
<path d="M0 0 C0.99 0.99 1.98 1.98 3 3 C2.01 3 1.02 3 0 3 C0 2.01 0 1.02 0 0 Z " fill="#363434" transform="translate(224,829)"/>
<path d="M0 0 C0.33 0.99 0.66 1.98 1 3 C0.01 3.495 0.01 3.495 -1 4 C-0.67 2.68 -0.34 1.36 0 0 Z " fill="#3C3A39" transform="translate(393,688)"/>
<path d="M0 0 C0.33 0.66 0.66 1.32 1 2 C0.01 3.485 0.01 3.485 -1 5 C-0.67 3.35 -0.34 1.7 0 0 Z " fill="#393737" transform="translate(401,672)"/>
<path d="M0 0 C0.33 0 0.66 0 1 0 C1 1.98 1 3.96 1 6 C0.67 6 0.34 6 0 6 C0 4.02 0 2.04 0 0 Z " fill="#393839" transform="translate(943,537)"/>
<path d="M0 0 C0.33 0.99 0.66 1.98 1 3 C0.34 3.66 -0.32 4.32 -1 5 C-0.67 3.35 -0.34 1.7 0 0 Z " fill="#373535" transform="translate(449,529)"/>
<path d="M0 0 C0.66 1.32 1.32 2.64 2 4 C1.01 3.34 0.02 2.68 -1 2 C-0.67 1.34 -0.34 0.68 0 0 Z " fill="#3A3737" transform="translate(649,484)"/>
<path d="M0 0 C0.99 0.495 0.99 0.495 2 1 C1.34 2.32 0.68 3.64 0 5 C0 3.35 0 1.7 0 0 Z " fill="#3D3A3B" transform="translate(88,424)"/>
<path d="M0 0 C0.33 1.32 0.66 2.64 1 4 C0.34 3.67 -0.32 3.34 -1 3 C-0.67 2.01 -0.34 1.02 0 0 Z " fill="#393838" transform="translate(901,320)"/>
<path d="M0 0 C0.99 0.33 1.98 0.66 3 1 C2.01 1.66 1.02 2.32 0 3 C0 2.01 0 1.02 0 0 Z " fill="#3B3A39" transform="translate(304,130)"/>
<path d="M0 0 C1.98 0 3.96 0 6 0 C6 0.33 6 0.66 6 1 C4.02 1 2.04 1 0 1 C0 0.67 0 0.34 0 0 Z " fill="#3E3C3B" transform="translate(323,120)"/>
<path d="M0 0 C0.66 0 1.32 0 2 0 C1.67 0.99 1.34 1.98 1 3 C0.67 2.01 0.34 1.02 0 0 Z " fill="#3A3938" transform="translate(368,917)"/>
<path d="M0 0 C0.99 0.495 0.99 0.495 2 1 C2 1.66 2 2.32 2 3 C1.34 3 0.68 3 0 3 C0 2.01 0 1.02 0 0 Z " fill="#383535" transform="translate(243,845)"/>
<path d="M0 0 C0.33 0.66 0.66 1.32 1 2 C1.66 2.33 2.32 2.66 3 3 C2.01 3 1.02 3 0 3 C0 2.01 0 1.02 0 0 Z " fill="#353333" transform="translate(192,797)"/>
<path d="M0 0 C0.66 1.32 1.32 2.64 2 4 C1.34 3.67 0.68 3.34 0 3 C0 2.01 0 1.02 0 0 Z " fill="#353434" transform="translate(120,686)"/>
<path d="M0 0 C0.99 0.33 1.98 0.66 3 1 C2.01 1.33 1.02 1.66 0 2 C0 1.34 0 0.68 0 0 Z " fill="#3D3B3A" transform="translate(400,664)"/>
<path d="M0 0 C0.66 0 1.32 0 2 0 C1.67 0.99 1.34 1.98 1 3 C0.67 2.01 0.34 1.02 0 0 Z " fill="#3B3938" transform="translate(96,623)"/>
<path d="M0 0 C0.66 0 1.32 0 2 0 C2 0.99 2 1.98 2 3 C1.34 2.67 0.68 2.34 0 2 C0 1.34 0 0.68 0 0 Z " fill="#333130" transform="translate(432,577)"/>
<path d="M0 0 C0.66 0 1.32 0 2 0 C1.67 1.32 1.34 2.64 1 4 C0.67 2.68 0.34 1.36 0 0 Z " fill="#403F3E" transform="translate(82,547)"/>
<path d="M0 0 C0.33 0.99 0.66 1.98 1 3 C0.34 3 -0.32 3 -1 3 C-0.67 2.01 -0.34 1.02 0 0 Z " fill="#373435" transform="translate(465,482)"/>
<path d="M0 0 C0.33 0.66 0.66 1.32 1 2 C0.34 2.66 -0.32 3.32 -1 4 C-0.67 2.68 -0.34 1.36 0 0 Z " fill="#393737" transform="translate(617,393)"/>
<path d="M0 0 C0.66 0 1.32 0 2 0 C2 0.99 2 1.98 2 3 C1.34 2.67 0.68 2.34 0 2 C0 1.34 0 0.68 0 0 Z " fill="#393837" transform="translate(893,305)"/>
<path d="M0 0 C0.66 0 1.32 0 2 0 C1.67 0.99 1.34 1.98 1 3 C0.67 2.01 0.34 1.02 0 0 Z " fill="#383737" transform="translate(144,280)"/>
<path d="M0 0 C1.485 0.99 1.485 0.99 3 2 C2.01 2 1.02 2 0 2 C0 1.34 0 0.68 0 0 Z " fill="#393636" transform="translate(192,218)"/>
<path d="M0 0 C0.99 0.495 0.99 0.495 2 1 C2 1.66 2 2.32 2 3 C1.34 3 0.68 3 0 3 C0 2.01 0 1.02 0 0 Z " fill="#383736" transform="translate(200,209)"/>
<path d="M0 0 C1.65 0 3.3 0 5 0 C5 0.33 5 0.66 5 1 C3.35 1 1.7 1 0 1 C0 0.67 0 0.34 0 0 Z " fill="#424241" transform="translate(547,80)"/>
<path d="M0 0 C0.99 0.33 1.98 0.66 3 1 C2.01 1 1.02 1 0 1 C0 0.67 0 0.34 0 0 Z " fill="#3B3938" transform="translate(619,926)"/>
<path d="M0 0 C0.99 0.495 0.99 0.495 2 1 C1.67 1.66 1.34 2.32 1 3 C0.67 2.01 0.34 1.02 0 0 Z " fill="#373534" transform="translate(288,877)"/>
<path d="M0 0 C0.66 0.33 1.32 0.66 2 1 C1.01 1 0.02 1 -1 1 C-0.67 0.67 -0.34 0.34 0 0 Z " fill="#363434" transform="translate(241,844)"/>
<path d="M0 0 C1 4 1 4 1 4 Z " fill="#3B3837" transform="translate(408,640)"/>
<path d="M0 0 C1 4 1 4 1 4 Z " fill="#3E3D3C" transform="translate(89,589)"/>
<path d="M0 0 C0 3 0 3 0 3 Z " fill="#383636" transform="translate(441,552)"/>
<path d="M0 0 C0.99 0.495 0.99 0.495 2 1 C1.67 1.66 1.34 2.32 1 3 C0.67 2.01 0.34 1.02 0 0 Z " fill="#3A3838" transform="translate(549,449)"/>
<path d="M0 0 C1 4 1 4 1 4 Z " fill="#3C3A3B" transform="translate(96,392)"/>
<path d="M0 0 C0 3 0 3 0 3 Z " fill="#3C3A3A" transform="translate(98,387)"/>
<path d="M0 0 C1 4 1 4 1 4 Z " fill="#3C3939" transform="translate(527,381)"/>
<path d="M0 0 C0.99 0.33 1.98 0.66 3 1 C2.01 1 1.02 1 0 1 C0 0.67 0 0.34 0 0 Z " fill="#3B3939" transform="translate(496,379)"/>
<path d="M0 0 C0.99 0.495 0.99 0.495 2 1 C1.67 1.66 1.34 2.32 1 3 C0.67 2.01 0.34 1.02 0 0 Z " fill="#3C3A3A" transform="translate(104,363)"/>
<path d="M0 0 C0.99 0.33 1.98 0.66 3 1 C2.01 1 1.02 1 0 1 C0 0.67 0 0.34 0 0 Z " fill="#3D3D3B" transform="translate(480,244)"/>
<path d="M0 0 C0.99 0 1.98 0 3 0 C2.67 0.66 2.34 1.32 2 2 C1.34 1.34 0.68 0.68 0 0 Z " fill="#393636" transform="translate(194,216)"/>
<path d="M0 0 C0.66 0.33 1.32 0.66 2 1 C1.01 1 0.02 1 -1 1 C-0.67 0.67 -0.34 0.34 0 0 Z " fill="#3C3B3B" transform="translate(271,152)"/>
<path d="M0 0 C0.66 0.66 1.32 1.32 2 2 C1.01 1.67 0.02 1.34 -1 1 C-0.67 0.67 -0.34 0.34 0 0 Z " fill="#3A3939" transform="translate(742,144)"/>
<path d="M0 0 C0.99 0.33 1.98 0.66 3 1 C2.01 1 1.02 1 0 1 C0 0.67 0 0.34 0 0 Z " fill="#3A3939" transform="translate(281,144)"/>
<path d="M0 0 C0.66 0 1.32 0 2 0 C1.67 0.99 1.34 1.98 1 3 C0.67 2.01 0.34 1.02 0 0 Z " fill="#403D3B" transform="translate(646,98)"/>
<path d="M0 0 C1.485 0.99 1.485 0.99 3 2 C2.01 2 1.02 2 0 2 C0 1.34 0 0.68 0 0 Z " fill="#434240" transform="translate(412,89)"/>
<path d="M0 0 C3 1 3 1 3 1 Z " fill="#3C3939" transform="translate(443,934)"/>
<path d="M0 0 C3 1 3 1 3 1 Z " fill="#3D3A39" transform="translate(439,933)"/>
<path d="M0 0 C3 1 3 1 3 1 Z " fill="#3E3C3B" transform="translate(432,932)"/>
<path d="M0 0 C3 1 3 1 3 1 Z " fill="#3C393A" transform="translate(408,927)"/>
<path d="M0 0 C0.33 0.66 0.66 1.32 1 2 C0.34 1.67 -0.32 1.34 -1 1 C-0.67 0.67 -0.34 0.34 0 0 Z " fill="#3A3837" transform="translate(709,893)"/>
<path d="M0 0 C0.66 0 1.32 0 2 0 C1.67 0.66 1.34 1.32 1 2 C0.67 1.34 0.34 0.68 0 0 Z " fill="#373735" transform="translate(298,886)"/>
<path d="M0 0 C0.66 0.66 1.32 1.32 2 2 C1.34 2 0.68 2 0 2 C0 1.34 0 0.68 0 0 Z " fill="#353432" transform="translate(297,882)"/>
<path d="M0 0 C0.66 0 1.32 0 2 0 C1.67 0.66 1.34 1.32 1 2 C0.67 1.34 0.34 0.68 0 0 Z " fill="#363434" transform="translate(248,853)"/>
<path d="M0 0 C0.33 0.66 0.66 1.32 1 2 C0.34 1.67 -0.32 1.34 -1 1 C-0.67 0.67 -0.34 0.34 0 0 Z " fill="#3B3736" transform="translate(286,739)"/>
<path d="" fill="#3B3837" transform="translate(0,0)"/>
<path d="M0 0 C0.99 0.495 0.99 0.495 2 1 C1.01 1.495 1.01 1.495 0 2 C0 1.34 0 0.68 0 0 Z " fill="#383735" transform="translate(138,726)"/>
<path d="M0 0 C0.66 0 1.32 0 2 0 C1.67 0.66 1.34 1.32 1 2 C0.67 1.34 0.34 0.68 0 0 Z " fill="#353434" transform="translate(138,723)"/>
<path d="" fill="#383637" transform="translate(0,0)"/>
<path d="" fill="#393635" transform="translate(0,0)"/>
<path d="" fill="#3C3B39" transform="translate(0,0)"/>
<path d="" fill="#3D3C3A" transform="translate(0,0)"/>
<path d="M0 0 C0.66 0 1.32 0 2 0 C1.67 0.66 1.34 1.32 1 2 C0.67 1.34 0.34 0.68 0 0 Z " fill="#363433" transform="translate(424,601)"/>
<path d="" fill="#3B3839" transform="translate(0,0)"/>
<path d="" fill="#383635" transform="translate(0,0)"/>
<path d="" fill="#3C3837" transform="translate(0,0)"/>
<path d="M0 0 C3 1 3 1 3 1 Z " fill="#363434" transform="translate(356,543)"/>
<path d="M0 0 C0.33 0.66 0.66 1.32 1 2 C0.34 1.67 -0.32 1.34 -1 1 C-0.67 0.67 -0.34 0.34 0 0 Z " fill="#363534" transform="translate(666,531)"/>
<path d="M0 0 C0.66 0 1.32 0 2 0 C1.67 0.66 1.34 1.32 1 2 C0.67 1.34 0.34 0.68 0 0 Z " fill="#3E3C3C" transform="translate(80,516)"/>
<path d="" fill="#393837" transform="translate(0,0)"/>
<path d="" fill="#3D3D3C" transform="translate(0,0)"/>
<path d="M0 0 C0.66 0 1.32 0 2 0 C1.67 0.66 1.34 1.32 1 2 C0.67 1.34 0.34 0.68 0 0 Z " fill="#3A3938" transform="translate(472,456)"/>
<path d="" fill="#393736" transform="translate(0,0)"/>
<path d="M0 0 C0.66 0 1.32 0 2 0 C1.67 0.66 1.34 1.32 1 2 C0.67 1.34 0.34 0.68 0 0 Z " fill="#383735" transform="translate(397,423)"/>
<path d="M0 0 C0.33 0.66 0.66 1.32 1 2 C0.34 1.67 -0.32 1.34 -1 1 C-0.67 0.67 -0.34 0.34 0 0 Z " fill="#3A3736" transform="translate(627,421)"/>
<path d="" fill="#353333" transform="translate(0,0)"/>
<path d="" fill="#363434" transform="translate(0,0)"/>
<path d="" fill="#3C3A39" transform="translate(0,0)"/>
<path d="" fill="#3A3638" transform="translate(0,0)"/>
<path d="" fill="#353434" transform="translate(0,0)"/>
<path d="" fill="#312F2F" transform="translate(0,0)"/>
<path d="" fill="#383636" transform="translate(0,0)"/>
<path d="" fill="#333131" transform="translate(0,0)"/>
<path d="" fill="#333233" transform="translate(0,0)"/>
<path d="M0 0 C0.99 0.495 0.99 0.495 2 1 C1.01 1.495 1.01 1.495 0 2 C0 1.34 0 0.68 0 0 Z " fill="#373434" transform="translate(152,271)"/>
<path d="M0 0 C3 1 3 1 3 1 Z " fill="#373635" transform="translate(861,256)"/>
<path d="M0 0 C0.99 0.495 0.99 0.495 2 1 C1.01 1.495 1.01 1.495 0 2 C0 1.34 0 0.68 0 0 Z " fill="#353233" transform="translate(168,248)"/>
<path d="M0 0 C3 1 3 1 3 1 Z " fill="#3F3E3B" transform="translate(506,244)"/>
<path d="M0 0 C3 1 3 1 3 1 Z " fill="#3B3A3A" transform="translate(469,244)"/>
<path d="M0 0 C3 1 3 1 3 1 Z " fill="#3C3837" transform="translate(465,244)"/>
<path d="M0 0 C0.99 0.495 0.99 0.495 2 1 C1.01 1.495 1.01 1.495 0 2 C0 1.34 0 0.68 0 0 Z " fill="#3A3938" transform="translate(184,226)"/>
<path d="M0 0 C3 1 3 1 3 1 Z " fill="#383736" transform="translate(187,224)"/>
<path d="M0 0 C0.99 0.495 0.99 0.495 2 1 C1.01 1.495 1.01 1.495 0 2 C0 1.34 0 0.68 0 0 Z " fill="#383534" transform="translate(822,208)"/>
<path d="M0 0 C0.66 0.66 1.32 1.32 2 2 C1.34 2 0.68 2 0 2 C0 1.34 0 0.68 0 0 Z " fill="#3D3A39" transform="translate(224,186)"/>
<path d="M0 0 C0.99 0.495 0.99 0.495 2 1 C1.01 1.495 1.01 1.495 0 2 C0 1.34 0 0.68 0 0 Z " fill="#3A3838" transform="translate(232,177)"/>
<path d="M0 0 C0.66 0 1.32 0 2 0 C1.67 0.66 1.34 1.32 1 2 C0.67 1.34 0.34 0.68 0 0 Z " fill="#3A3938" transform="translate(247,168)"/>
<path d="M0 0 C0.99 0.495 0.99 0.495 2 1 C1.01 1.495 1.01 1.495 0 2 C0 1.34 0 0.68 0 0 Z " fill="#3B3A39" transform="translate(291,139)"/>
<path d="M0 0 C3 1 3 1 3 1 Z " fill="#383537" transform="translate(296,136)"/>
<path d="M0 0 C0.66 0 1.32 0 2 0 C1.67 0.66 1.34 1.32 1 2 C0.67 1.34 0.34 0.68 0 0 Z " fill="#3B3938" transform="translate(363,104)"/>
<path d="M0 0 C3 1 3 1 3 1 Z " fill="#41403F" transform="translate(408,91)"/>
<path d="M0 0 C3 1 3 1 3 1 Z " fill="#403D3E" transform="translate(421,88)"/>
<path d="M0 0 C2 1 2 1 2 1 Z " fill="#3D393B" transform="translate(572,935)"/>
<path d="M0 0 C2 1 2 1 2 1 Z " fill="#3C3839" transform="translate(568,935)"/>
<path d="M0 0 C2 1 2 1 2 1 Z " fill="#3D3B3A" transform="translate(579,934)"/>
<path d="M0 0 C2 1 2 1 2 1 Z " fill="#3B3838" transform="translate(397,924)"/>
<path d="" fill="#3B3939" transform="translate(0,0)"/>
<path d="M0 0 C2 1 2 1 2 1 Z " fill="#3A3838" transform="translate(371,919)"/>
<path d="M0 0 C2 1 2 1 2 1 Z " fill="#3E3B3A" transform="translate(650,917)"/>
<path d="M0 0 C2 1 2 1 2 1 Z " fill="#3C3B39" transform="translate(373,917)"/>
<path d="M0 0 C2 1 2 1 2 1 Z " fill="#3B3937" transform="translate(371,916)"/>
<path d="M0 0 C2 1 2 1 2 1 Z " fill="#353434" transform="translate(665,911)"/>
<path d="M0 0 C2 1 2 1 2 1 Z " fill="#3B3937" transform="translate(671,909)"/>
<path d="M0 0 C2 1 2 1 2 1 Z " fill="#3C3A39" transform="translate(351,909)"/>
<path d="M0 0 C2 1 2 1 2 1 Z " fill="#343533" transform="translate(328,899)"/>
<path d="M0 0 C2 1 2 1 2 1 Z " fill="#373938" transform="translate(710,895)"/>
<path d="" fill="#393736" transform="translate(0,0)"/>
<path d="M0 0 C2 1 2 1 2 1 Z " fill="#393638" transform="translate(265,863)"/>
<path d="M0 0 C2 1 2 1 2 1 Z " fill="#353532" transform="translate(249,851)"/>
<path d="M0 0 C2 1 2 1 2 1 Z " fill="#373434" transform="translate(177,783)"/>
<path d="" fill="#363434" transform="translate(0,0)"/>
<path d="M0 0 C2 1 2 1 2 1 Z " fill="#383534" transform="translate(152,749)"/>
<path d="" fill="#3E3D3B" transform="translate(0,0)"/>
<path d="M0 0 C2 1 2 1 2 1 Z " fill="#3B3938" transform="translate(739,739)"/>
<path d="" fill="#3B3B39" transform="translate(0,0)"/>
<path d="" fill="#393737" transform="translate(0,0)"/>
<path d="M0 0 C2 1 2 1 2 1 Z " fill="#3D3C3B" transform="translate(736,733)"/>
<path d="M0 0 C2 1 2 1 2 1 Z " fill="#3F3B3A" transform="translate(736,730)"/>
<path d="" fill="#383737" transform="translate(0,0)"/>
<path d="M0 0 C2 1 2 1 2 1 Z " fill="#424040" transform="translate(729,711)"/>
<path d="" fill="#3B3839" transform="translate(0,0)"/>
<path d="" fill="#3B3A39" transform="translate(0,0)"/>
<path d="" fill="#3C3B3A" transform="translate(0,0)"/>
<path d="" fill="#3D3C3C" transform="translate(0,0)"/>
<path d="" fill="#3A3838" transform="translate(0,0)"/>
<path d="" fill="#3A3837" transform="translate(0,0)"/>
<path d="" fill="#3E3C3C" transform="translate(0,0)"/>
<path d="" fill="#393837" transform="translate(0,0)"/>
<path d="M0 0 C2 1 2 1 2 1 Z " fill="#3A3938" transform="translate(619,656)"/>
<path d="" fill="#3C3B3B" transform="translate(0,0)"/>
<path d="" fill="#3B3739" transform="translate(0,0)"/>
<path d="" fill="#3B3838" transform="translate(0,0)"/>
<path d="" fill="#3A3738" transform="translate(0,0)"/>
<path d="" fill="#373535" transform="translate(0,0)"/>
<path d="" fill="#3B3938" transform="translate(0,0)"/>
<path d="" fill="#393839" transform="translate(0,0)"/>
<path d="M0 0 C2 1 2 1 2 1 Z " fill="#3C3A39" transform="translate(696,623)"/>
<path d="" fill="#393634" transform="translate(0,0)"/>
<path d="" fill="#393637" transform="translate(0,0)"/>
<path d="" fill="#393735" transform="translate(0,0)"/>
<path d="" fill="#373435" transform="translate(0,0)"/>
<path d="" fill="#3D3A3A" transform="translate(0,0)"/>
<path d="" fill="#3D3939" transform="translate(0,0)"/>
<path d="" fill="#373333" transform="translate(0,0)"/>
<path d="" fill="#423F3E" transform="translate(0,0)"/>
<path d="" fill="#393636" transform="translate(0,0)"/>
<path d="" fill="#393837" transform="translate(0,0)"/>
<path d="" fill="#383736" transform="translate(0,0)"/>
<path d="" fill="#393736" transform="translate(0,0)"/>
<path d="" fill="#313030" transform="translate(0,0)"/>
<path d="" fill="#363234" transform="translate(0,0)"/>
<path d="" fill="#383636" transform="translate(0,0)"/>
<path d="M0 0 C2 1 2 1 2 1 Z " fill="#363433" transform="translate(348,562)"/>
<path d="" fill="#393634" transform="translate(0,0)"/>
<path d="" fill="#383637" transform="translate(0,0)"/>
<path d="" fill="#3D3A3B" transform="translate(0,0)"/>
<path d="" fill="#393637" transform="translate(0,0)"/>
<path d="" fill="#373536" transform="translate(0,0)"/>
<path d="" fill="#373534" transform="translate(0,0)"/>
<path d="" fill="#3A3837" transform="translate(0,0)"/>
<path d="" fill="#363434" transform="translate(0,0)"/>
<path d="" fill="#363434" transform="translate(0,0)"/>
<path d="" fill="#3B3838" transform="translate(0,0)"/>
<path d="" fill="#3F3C3B" transform="translate(0,0)"/>
<path d="" fill="#3F3C3C" transform="translate(0,0)"/>
<path d="" fill="#393636" transform="translate(0,0)"/>
<path d="" fill="#3A3837" transform="translate(0,0)"/>
<path d="" fill="#3A3637" transform="translate(0,0)"/>
<path d="" fill="#393536" transform="translate(0,0)"/>
<path d="" fill="#3C3939" transform="translate(0,0)"/>
<path d="" fill="#3B3838" transform="translate(0,0)"/>
<path d="" fill="#3B3839" transform="translate(0,0)"/>
<path d="" fill="#3A3836" transform="translate(0,0)"/>
<path d="" fill="#383535" transform="translate(0,0)"/>
<path d="" fill="#3F3E3C" transform="translate(0,0)"/>
<path d="" fill="#3A3737" transform="translate(0,0)"/>
<path d="" fill="#393535" transform="translate(0,0)"/>
<path d="" fill="#393737" transform="translate(0,0)"/>
<path d="M0 0 C2 1 2 1 2 1 Z " fill="#373635" transform="translate(491,401)"/>
<path d="" fill="#3A3737" transform="translate(0,0)"/>
<path d="" fill="#3A3938" transform="translate(0,0)"/>
<path d="" fill="#363434" transform="translate(0,0)"/>
<path d="" fill="#3D3A39" transform="translate(0,0)"/>
<path d="" fill="#3B3838" transform="translate(0,0)"/>
<path d="M0 0 C2 1 2 1 2 1 Z " fill="#3A3739" transform="translate(496,377)"/>
<path d="" fill="#373435" transform="translate(0,0)"/>
<path d="M0 0 C2 1 2 1 2 1 Z " fill="#383535" transform="translate(421,359)"/>
<path d="" fill="#333131" transform="translate(0,0)"/>
<path d="" fill="#3D3B3B" transform="translate(0,0)"/>
<path d="" fill="#3B3839" transform="translate(0,0)"/>
<path d="" fill="#32302F" transform="translate(0,0)"/>
<path d="" fill="#3A3736" transform="translate(0,0)"/>
<path d="" fill="#3C3A39" transform="translate(0,0)"/>
<path d="M0 0 C2 1 2 1 2 1 Z " fill="#393738" transform="translate(891,304)"/>
<path d="" fill="#343330" transform="translate(0,0)"/>
<path d="M0 0 C2 1 2 1 2 1 Z " fill="#3A3838" transform="translate(886,293)"/>
<path d="" fill="#333130" transform="translate(0,0)"/>
<path d="" fill="#373535" transform="translate(0,0)"/>
<path d="" fill="#383636" transform="translate(0,0)"/>
<path d="" fill="#3C3A38" transform="translate(0,0)"/>
<path d="M0 0 C2 1 2 1 2 1 Z " fill="#3A3A39" transform="translate(461,247)"/>
<path d="M0 0 C2 1 2 1 2 1 Z " fill="#3F3E3F" transform="translate(507,246)"/>
<path d="" fill="#3F3E3C" transform="translate(0,0)"/>
<path d="M0 0 C2 1 2 1 2 1 Z " fill="#3D3C3A" transform="translate(514,244)"/>
<path d="M0 0 C2 1 2 1 2 1 Z " fill="#383835" transform="translate(179,233)"/>
<path d="M0 0 C2 1 2 1 2 1 Z " fill="#383637" transform="translate(835,224)"/>
<path d="M0 0 C2 1 2 1 2 1 Z " fill="#363535" transform="translate(829,217)"/>
<path d="M0 0 C2 1 2 1 2 1 Z " fill="#3C3B3A" transform="translate(227,185)"/>
<path d="M0 0 C2 1 2 1 2 1 Z " fill="#3A3736" transform="translate(788,179)"/>
<path d="M0 0 C2 1 2 1 2 1 Z " fill="#3B3839" transform="translate(787,176)"/>
<path d="" fill="#3F3E3D" transform="translate(0,0)"/>
<path d="M0 0 C2 1 2 1 2 1 Z " fill="#353233" transform="translate(774,168)"/>
<path d="M0 0 C2 1 2 1 2 1 Z " fill="#3D3837" transform="translate(758,154)"/>
<path d="" fill="#3B3A38" transform="translate(0,0)"/>
<path d="M0 0 C2 1 2 1 2 1 Z " fill="#3A3C39" transform="translate(290,137)"/>
<path d="M0 0 C2 1 2 1 2 1 Z " fill="#3F3C3D" transform="translate(696,120)"/>
<path d="" fill="#3F3B3B" transform="translate(0,0)"/>
<path d="M0 0 C2 1 2 1 2 1 Z " fill="#3D3D3B" transform="translate(667,106)"/>
<path d="M0 0 C2 1 2 1 2 1 Z " fill="#3D3A3C" transform="translate(366,104)"/>
<path d="M0 0 C2 1 2 1 2 1 Z " fill="#3F3B3C" transform="translate(360,104)"/>
<path d="M0 0 C2 1 2 1 2 1 Z " fill="#413F3D" transform="translate(641,98)"/>
<path d="" fill="#3C3B3A" transform="translate(0,0)"/>
<path d="M0 0 C2 1 2 1 2 1 Z " fill="#3E3E3D" transform="translate(387,97)"/>
<path d="M0 0 C2 1 2 1 2 1 Z " fill="#413F3D" transform="translate(641,96)"/>
<path d="" fill="#423F40" transform="translate(0,0)"/>
<path d="" fill="#3D3C3C" transform="translate(0,0)"/>
<path d="M0 0 C2 1 2 1 2 1 Z " fill="#403E3C" transform="translate(418,89)"/>
<path d="M0 0 C2 1 2 1 2 1 Z " fill="#413F3F" transform="translate(603,88)"/>
<path d="M0 0 C2 1 2 1 2 1 Z " fill="#444240" transform="translate(580,84)"/>
<path d="M0 0 C2 1 2 1 2 1 Z " fill="#424141" transform="translate(582,83)"/>
<path d="" fill="#444241" transform="translate(0,0)"/>
<path d="" fill="#444040" transform="translate(0,0)"/>
<path d="M0 0 C2 1 2 1 2 1 Z " fill="#444242" transform="translate(563,80)"/>
<path d="M0 0 C2 1 2 1 2 1 Z " fill="#414041" transform="translate(542,80)"/>
<path d="" fill="#3A3838" transform="translate(0,0)"/>
<path d="" fill="#3B3938" transform="translate(0,0)"/>
<path d="" fill="#3C3939" transform="translate(0,0)"/>
<path d="" fill="#3D3A39" transform="translate(0,0)"/>
<path d="" fill="#3D3B3B" transform="translate(0,0)"/>
<path d="" fill="#3E3C3B" transform="translate(0,0)"/>
<path d="" fill="#3B3838" transform="translate(0,0)"/>
<path d="" fill="#3B3939" transform="translate(0,0)"/>
<path d="" fill="#3C3A39" transform="translate(0,0)"/>
<path d="" fill="#222120" transform="translate(0,0)"/>
<path d="" fill="#3D3C3A" transform="translate(0,0)"/>
<path d="" fill="#3D3A3A" transform="translate(0,0)"/>
<path d="" fill="#3E3B3E" transform="translate(0,0)"/>
<path d="" fill="#3C3C3B" transform="translate(0,0)"/>
<path d="" fill="#3C3B38" transform="translate(0,0)"/>
<path d="" fill="#3B3A3A" transform="translate(0,0)"/>
<path d="" fill="#3D3937" transform="translate(0,0)"/>
<path d="" fill="#3C3938" transform="translate(0,0)"/>
<path d="" fill="#3A393A" transform="translate(0,0)"/>
<path d="" fill="#3D3938" transform="translate(0,0)"/>
<path d="" fill="#393738" transform="translate(0,0)"/>
<path d="" fill="#393937" transform="translate(0,0)"/>
<path d="" fill="#3E3B39" transform="translate(0,0)"/>
<path d="" fill="#3B3739" transform="translate(0,0)"/>
<path d="" fill="#3B3A39" transform="translate(0,0)"/>
<path d="" fill="#3B3A38" transform="translate(0,0)"/>
<path d="" fill="#3A3736" transform="translate(0,0)"/>
<path d="" fill="#3B3737" transform="translate(0,0)"/>
<path d="" fill="#3A3737" transform="translate(0,0)"/>
<path d="" fill="#3D3A38" transform="translate(0,0)"/>
<path d="" fill="#3C3939" transform="translate(0,0)"/>
<path d="" fill="#383736" transform="translate(0,0)"/>
<path d="" fill="#3F3C3A" transform="translate(0,0)"/>
<path d="" fill="#343333" transform="translate(0,0)"/>
<path d="" fill="#3C3B3A" transform="translate(0,0)"/>
<path d="" fill="#353331" transform="translate(0,0)"/>
<path d="" fill="#373735" transform="translate(0,0)"/>
<path d="" fill="#393635" transform="translate(0,0)"/>
<path d="" fill="#3C3936" transform="translate(0,0)"/>
<path d="" fill="#3D3A3B" transform="translate(0,0)"/>
<path d="" fill="#3B3937" transform="translate(0,0)"/>
<path d="" fill="#373737" transform="translate(0,0)"/>
<path d="" fill="#3D3B3A" transform="translate(0,0)"/>
<path d="" fill="#393738" transform="translate(0,0)"/>
<path d="" fill="#383636" transform="translate(0,0)"/>
<path d="" fill="#3D3A3A" transform="translate(0,0)"/>
<path d="" fill="#393939" transform="translate(0,0)"/>
<path d="" fill="#3A3A38" transform="translate(0,0)"/>
<path d="" fill="#3B3638" transform="translate(0,0)"/>
<path d="" fill="#3A3837" transform="translate(0,0)"/>
<path d="" fill="#3A3637" transform="translate(0,0)"/>
<path d="" fill="#383437" transform="translate(0,0)"/>
<path d="" fill="#383739" transform="translate(0,0)"/>
<path d="" fill="#383736" transform="translate(0,0)"/>
<path d="" fill="#383734" transform="translate(0,0)"/>
<path d="" fill="#373534" transform="translate(0,0)"/>
<path d="" fill="#393635" transform="translate(0,0)"/>
<path d="" fill="#363432" transform="translate(0,0)"/>
<path d="" fill="#353634" transform="translate(0,0)"/>
<path d="" fill="#383735" transform="translate(0,0)"/>
<path d="" fill="#363735" transform="translate(0,0)"/>
<path d="" fill="#3A3836" transform="translate(0,0)"/>
<path d="" fill="#3B3636" transform="translate(0,0)"/>
<path d="" fill="#302E2D" transform="translate(0,0)"/>
<path d="" fill="#373636" transform="translate(0,0)"/>
<path d="" fill="#343537" transform="translate(0,0)"/>
<path d="" fill="#383533" transform="translate(0,0)"/>
<path d="" fill="#393835" transform="translate(0,0)"/>
<path d="" fill="#343232" transform="translate(0,0)"/>
<path d="" fill="#373736" transform="translate(0,0)"/>
<path d="" fill="#363432" transform="translate(0,0)"/>
<path d="" fill="#383434" transform="translate(0,0)"/>
<path d="" fill="#353532" transform="translate(0,0)"/>
<path d="" fill="#373432" transform="translate(0,0)"/>
<path d="" fill="#353234" transform="translate(0,0)"/>
<path d="" fill="#373534" transform="translate(0,0)"/>
<path d="" fill="#383435" transform="translate(0,0)"/>
<path d="" fill="#363433" transform="translate(0,0)"/>
<path d="" fill="#373532" transform="translate(0,0)"/>
<path d="" fill="#353433" transform="translate(0,0)"/>
<path d="" fill="#333330" transform="translate(0,0)"/>
<path d="" fill="#383634" transform="translate(0,0)"/>
<path d="" fill="#353132" transform="translate(0,0)"/>
<path d="" fill="#353432" transform="translate(0,0)"/>
<path d="" fill="#373436" transform="translate(0,0)"/>
<path d="" fill="#343332" transform="translate(0,0)"/>
<path d="" fill="#353436" transform="translate(0,0)"/>
<path d="" fill="#373235" transform="translate(0,0)"/>
<path d="" fill="#34332F" transform="translate(0,0)"/>
<path d="" fill="#373636" transform="translate(0,0)"/>
<path d="" fill="#333130" transform="translate(0,0)"/>
<path d="" fill="#373432" transform="translate(0,0)"/>
<path d="" fill="#363333" transform="translate(0,0)"/>
<path d="" fill="#363736" transform="translate(0,0)"/>
<path d="" fill="#363333" transform="translate(0,0)"/>
<path d="" fill="#2D2B2A" transform="translate(0,0)"/>
<path d="" fill="#32302E" transform="translate(0,0)"/>
<path d="" fill="#353332" transform="translate(0,0)"/>
<path d="" fill="#363432" transform="translate(0,0)"/>
<path d="" fill="#353232" transform="translate(0,0)"/>
<path d="" fill="#373434" transform="translate(0,0)"/>
<path d="" fill="#383435" transform="translate(0,0)"/>
<path d="" fill="#383634" transform="translate(0,0)"/>
<path d="" fill="#373635" transform="translate(0,0)"/>
<path d="" fill="#333330" transform="translate(0,0)"/>
<path d="" fill="#3A3836" transform="translate(0,0)"/>
<path d="" fill="#444141" transform="translate(0,0)"/>
<path d="" fill="#42403E" transform="translate(0,0)"/>
<path d="" fill="#3E3B3A" transform="translate(0,0)"/>
<path d="" fill="#434240" transform="translate(0,0)"/>
<path d="" fill="#413F3E" transform="translate(0,0)"/>
<path d="" fill="#3F3E3C" transform="translate(0,0)"/>
<path d="" fill="#3C3C3A" transform="translate(0,0)"/>
<path d="" fill="#3C3D3A" transform="translate(0,0)"/>
<path d="" fill="#403E3D" transform="translate(0,0)"/>
<path d="" fill="#404140" transform="translate(0,0)"/>
<path d="" fill="#3C3B3A" transform="translate(0,0)"/>
<path d="" fill="#444242" transform="translate(0,0)"/>
<path d="" fill="#434142" transform="translate(0,0)"/>
<path d="" fill="#3C3A3A" transform="translate(0,0)"/>
<path d="" fill="#353533" transform="translate(0,0)"/>
<path d="" fill="#363635" transform="translate(0,0)"/>
<path d="" fill="#3B3C39" transform="translate(0,0)"/>
<path d="" fill="#3B3836" transform="translate(0,0)"/>
<path d="" fill="#353433" transform="translate(0,0)"/>
<path d="" fill="#373635" transform="translate(0,0)"/>
<path d="" fill="#3B3938" transform="translate(0,0)"/>
<path d="" fill="#383634" transform="translate(0,0)"/>
<path d="" fill="#363533" transform="translate(0,0)"/>
<path d="" fill="#403F3D" transform="translate(0,0)"/>
<path d="" fill="#3E3E3E" transform="translate(0,0)"/>
<path d="" fill="#393636" transform="translate(0,0)"/>
<path d="" fill="#353333" transform="translate(0,0)"/>
<path d="" fill="#373735" transform="translate(0,0)"/>
<path d="" fill="#3D3B39" transform="translate(0,0)"/>
<path d="" fill="#353331" transform="translate(0,0)"/>
<path d="" fill="#363433" transform="translate(0,0)"/>
<path d="" fill="#373636" transform="translate(0,0)"/>
<path d="" fill="#3F3E3D" transform="translate(0,0)"/>
<path d="" fill="#373435" transform="translate(0,0)"/>
<path d="" fill="#3F3E3D" transform="translate(0,0)"/>
<path d="" fill="#3F3D3B" transform="translate(0,0)"/>
<path d="" fill="#393638" transform="translate(0,0)"/>
<path d="" fill="#3D3A3A" transform="translate(0,0)"/>
<path d="" fill="#3A3736" transform="translate(0,0)"/>
<path d="" fill="#3C3838" transform="translate(0,0)"/>
<path d="" fill="#3F3D3B" transform="translate(0,0)"/>
<path d="" fill="#403F3D" transform="translate(0,0)"/>
<path d="" fill="#3F3E3B" transform="translate(0,0)"/>
<path d="" fill="#3C3B3B" transform="translate(0,0)"/>
<path d="" fill="#3E3D3B" transform="translate(0,0)"/>
<path d="" fill="#3F3D3D" transform="translate(0,0)"/>
<path d="" fill="#3D3D3D" transform="translate(0,0)"/>
<path d="" fill="#3E3D3D" transform="translate(0,0)"/>
<path d="" fill="#393837" transform="translate(0,0)"/>
<path d="" fill="#363534" transform="translate(0,0)"/>
<path d="" fill="#373735" transform="translate(0,0)"/>
<path d="" fill="#383836" transform="translate(0,0)"/>
<path d="" fill="#3A3938" transform="translate(0,0)"/>
<path d="" fill="#403F3E" transform="translate(0,0)"/>
<path d="" fill="#393736" transform="translate(0,0)"/>
<path d="" fill="#403E3E" transform="translate(0,0)"/>
<path d="" fill="#393836" transform="translate(0,0)"/>
<path d="" fill="#3A3738" transform="translate(0,0)"/>
<path d="" fill="#3A3738" transform="translate(0,0)"/>
<path d="" fill="#363533" transform="translate(0,0)"/>
<path d="" fill="#3C3A3A" transform="translate(0,0)"/>
<path d="" fill="#383736" transform="translate(0,0)"/>
<path d="" fill="#363333" transform="translate(0,0)"/>
<path d="" fill="#3B393A" transform="translate(0,0)"/>
<path d="" fill="#3D3B3B" transform="translate(0,0)"/>
<path d="" fill="#383738" transform="translate(0,0)"/>
<path d="" fill="#3D3C37" transform="translate(0,0)"/>
<path d="" fill="#3B3939" transform="translate(0,0)"/>
<path d="" fill="#343332" transform="translate(0,0)"/>
<path d="" fill="#3A3737" transform="translate(0,0)"/>
<path d="" fill="#3A3838" transform="translate(0,0)"/>
<path d="" fill="#3E3C3A" transform="translate(0,0)"/>
<path d="" fill="#383836" transform="translate(0,0)"/>
<path d="" fill="#3F3C3D" transform="translate(0,0)"/>
<path d="" fill="#3F3D3B" transform="translate(0,0)"/>
<path d="" fill="#3C3836" transform="translate(0,0)"/>
<path d="" fill="#383836" transform="translate(0,0)"/>
<path d="" fill="#3C393A" transform="translate(0,0)"/>
<path d="" fill="#3E3C3C" transform="translate(0,0)"/>
<path d="" fill="#3F3F3D" transform="translate(0,0)"/>
<path d="" fill="#393536" transform="translate(0,0)"/>
<path d="" fill="#3E3C3B" transform="translate(0,0)"/>
<path d="" fill="#383638" transform="translate(0,0)"/>
<path d="" fill="#3C3B3A" transform="translate(0,0)"/>
<path d="" fill="#393837" transform="translate(0,0)"/>
<path d="" fill="#3D3939" transform="translate(0,0)"/>
<path d="" fill="#3A3938" transform="translate(0,0)"/>
<path d="" fill="#393838" transform="translate(0,0)"/>
<path d="" fill="#3D3D3C" transform="translate(0,0)"/>
<path d="" fill="#3E3C3C" transform="translate(0,0)"/>
<path d="" fill="#3F3C3B" transform="translate(0,0)"/>
<path d="" fill="#3E3B3A" transform="translate(0,0)"/>
<path d="" fill="#373636" transform="translate(0,0)"/>
<path d="" fill="#3C3C3A" transform="translate(0,0)"/>
<path d="" fill="#393835" transform="translate(0,0)"/>
<path d="" fill="#3C3A38" transform="translate(0,0)"/>
<path d="" fill="#3A383A" transform="translate(0,0)"/>
<path d="" fill="#3C3A39" transform="translate(0,0)"/>
<path d="" fill="#3C3A3A" transform="translate(0,0)"/>
<path d="" fill="#3C3A39" transform="translate(0,0)"/>
<path d="" fill="#3D3B39" transform="translate(0,0)"/>
<path d="" fill="#383536" transform="translate(0,0)"/>
<path d="" fill="#363533" transform="translate(0,0)"/>
<path d="" fill="#373435" transform="translate(0,0)"/>
<path d="" fill="#383635" transform="translate(0,0)"/>
<path d="" fill="#3A3938" transform="translate(0,0)"/>
<path d="" fill="#383735" transform="translate(0,0)"/>
<path d="" fill="#3D3C3C" transform="translate(0,0)"/>
<path d="" fill="#383533" transform="translate(0,0)"/>
<path d="" fill="#3A3838" transform="translate(0,0)"/>
<path d="" fill="#3A3B39" transform="translate(0,0)"/>
<path d="" fill="#373633" transform="translate(0,0)"/>
<path d="" fill="#3D3C3C" transform="translate(0,0)"/>
<path d="" fill="#3C3B3A" transform="translate(0,0)"/>
<path d="" fill="#3B3738" transform="translate(0,0)"/>
<path d="" fill="#3C3A39" transform="translate(0,0)"/>
<path d="" fill="#3C3839" transform="translate(0,0)"/>
<path d="" fill="#3A3635" transform="translate(0,0)"/>
<path d="" fill="#363432" transform="translate(0,0)"/>
<path d="" fill="#3C3B39" transform="translate(0,0)"/>
<path d="" fill="#3A3936" transform="translate(0,0)"/>
<path d="" fill="#393837" transform="translate(0,0)"/>
<path d="" fill="#3E3C3B" transform="translate(0,0)"/>
<path d="" fill="#393635" transform="translate(0,0)"/>
<path d="" fill="#383536" transform="translate(0,0)"/>
<path d="" fill="#3D3D39" transform="translate(0,0)"/>
<path d="" fill="#3E3C3B" transform="translate(0,0)"/>
<path d="" fill="#393635" transform="translate(0,0)"/>
<path d="" fill="#3F3D3E" transform="translate(0,0)"/>
<path d="" fill="#3A3839" transform="translate(0,0)"/>
<path d="" fill="#393636" transform="translate(0,0)"/>
<path d="" fill="#3F3E3D" transform="translate(0,0)"/>
<path d="" fill="#383636" transform="translate(0,0)"/>
<path d="" fill="#373435" transform="translate(0,0)"/>
<path d="" fill="#393435" transform="translate(0,0)"/>
<path d="" fill="#3C3939" transform="translate(0,0)"/>
<path d="" fill="#383638" transform="translate(0,0)"/>
<path d="" fill="#3C3C3B" transform="translate(0,0)"/>
<path d="" fill="#363432" transform="translate(0,0)"/>
<path d="" fill="#393536" transform="translate(0,0)"/>
<path d="" fill="#3C3838" transform="translate(0,0)"/>
<path d="" fill="#353433" transform="translate(0,0)"/>
<path d="" fill="#363233" transform="translate(0,0)"/>
<path d="" fill="#383435" transform="translate(0,0)"/>
<path d="" fill="#373533" transform="translate(0,0)"/>
<path d="" fill="#3A3735" transform="translate(0,0)"/>
<path d="" fill="#31302D" transform="translate(0,0)"/>
<path d="" fill="#373537" transform="translate(0,0)"/>
<path d="" fill="#393434" transform="translate(0,0)"/>
<path d="" fill="#363334" transform="translate(0,0)"/>
<path d="" fill="#3E3B39" transform="translate(0,0)"/>
<path d="" fill="#3B3A3A" transform="translate(0,0)"/>
<path d="" fill="#403C3E" transform="translate(0,0)"/>
<path d="" fill="#383334" transform="translate(0,0)"/>
<path d="" fill="#363235" transform="translate(0,0)"/>
<path d="" fill="#343233" transform="translate(0,0)"/>
<path d="" fill="#363433" transform="translate(0,0)"/>
<path d="" fill="#393738" transform="translate(0,0)"/>
<path d="" fill="#3A3737" transform="translate(0,0)"/>
<path d="" fill="#3A3636" transform="translate(0,0)"/>
<path d="" fill="#3F3E3E" transform="translate(0,0)"/>
<path d="" fill="#3C3838" transform="translate(0,0)"/>
<path d="" fill="#393735" transform="translate(0,0)"/>
<path d="" fill="#3B3837" transform="translate(0,0)"/>
<path d="" fill="#403F3F" transform="translate(0,0)"/>
<path d="" fill="#3C3739" transform="translate(0,0)"/>
<path d="" fill="#383736" transform="translate(0,0)"/>
<path d="" fill="#363534" transform="translate(0,0)"/>
<path d="" fill="#3F3D3B" transform="translate(0,0)"/>
<path d="" fill="#383534" transform="translate(0,0)"/>
<path d="" fill="#363233" transform="translate(0,0)"/>
<path d="" fill="#3C3A37" transform="translate(0,0)"/>
<path d="" fill="#3A3837" transform="translate(0,0)"/>
<path d="" fill="#363333" transform="translate(0,0)"/>
<path d="" fill="#393837" transform="translate(0,0)"/>
<path d="" fill="#3F3B3B" transform="translate(0,0)"/>
<path d="" fill="#383537" transform="translate(0,0)"/>
<path d="" fill="#333130" transform="translate(0,0)"/>
<path d="" fill="#3F3C3D" transform="translate(0,0)"/>
<path d="" fill="#3E3C3B" transform="translate(0,0)"/>
<path d="" fill="#3C3938" transform="translate(0,0)"/>
<path d="" fill="#33312F" transform="translate(0,0)"/>
<path d="" fill="#3D3B3B" transform="translate(0,0)"/>
<path d="" fill="#3C3B3A" transform="translate(0,0)"/>
<path d="" fill="#3B3938" transform="translate(0,0)"/>
<path d="" fill="#373736" transform="translate(0,0)"/>
<path d="" fill="#323131" transform="translate(0,0)"/>
<path d="" fill="#3E403E" transform="translate(0,0)"/>
<path d="" fill="#3C3938" transform="translate(0,0)"/>
<path d="" fill="#3B3B3A" transform="translate(0,0)"/>
<path d="" fill="#3A3735" transform="translate(0,0)"/>
<path d="" fill="#383634" transform="translate(0,0)"/>
<path d="" fill="#393839" transform="translate(0,0)"/>
<path d="" fill="#39373A" transform="translate(0,0)"/>
<path d="" fill="#363635" transform="translate(0,0)"/>
<path d="" fill="#393636" transform="translate(0,0)"/>
<path d="" fill="#3A3838" transform="translate(0,0)"/>
<path d="" fill="#3F403D" transform="translate(0,0)"/>
<path d="" fill="#3C3A3A" transform="translate(0,0)"/>
<path d="" fill="#3B3939" transform="translate(0,0)"/>
<path d="" fill="#3B3939" transform="translate(0,0)"/>
<path d="" fill="#3A3838" transform="translate(0,0)"/>
<path d="" fill="#3A3737" transform="translate(0,0)"/>
<path d="" fill="#373535" transform="translate(0,0)"/>
<path d="" fill="#383635" transform="translate(0,0)"/>
<path d="" fill="#3B3939" transform="translate(0,0)"/>
<path d="" fill="#383535" transform="translate(0,0)"/>
<path d="" fill="#3E3B3A" transform="translate(0,0)"/>
<path d="" fill="#3F3D3E" transform="translate(0,0)"/>
<path d="" fill="#3C3A37" transform="translate(0,0)"/>
<path d="" fill="#383836" transform="translate(0,0)"/>
<path d="" fill="#3F3E3E" transform="translate(0,0)"/>
<path d="" fill="#3D3C3D" transform="translate(0,0)"/>
<path d="" fill="#3E3B3C" transform="translate(0,0)"/>
<path d="" fill="#3E3B3B" transform="translate(0,0)"/>
<path d="" fill="#383738" transform="translate(0,0)"/>
<path d="" fill="#3B3A3B" transform="translate(0,0)"/>
<path d="" fill="#3D3B3B" transform="translate(0,0)"/>
<path d="" fill="#3E3C3C" transform="translate(0,0)"/>
<path d="" fill="#393738" transform="translate(0,0)"/>
<path d="" fill="#3E3C3A" transform="translate(0,0)"/>
<path d="" fill="#383634" transform="translate(0,0)"/>
<path d="" fill="#3F3D3D" transform="translate(0,0)"/>
<path d="" fill="#3F3D3B" transform="translate(0,0)"/>
<path d="" fill="#3C3B39" transform="translate(0,0)"/>
<path d="" fill="#3A3737" transform="translate(0,0)"/>
<path d="" fill="#3D3B39" transform="translate(0,0)"/>
<path d="" fill="#373635" transform="translate(0,0)"/>
<path d="" fill="#3C3A3B" transform="translate(0,0)"/>
<path d="" fill="#373335" transform="translate(0,0)"/>
<path d="" fill="#3A3938" transform="translate(0,0)"/>
<path d="" fill="#3C3A39" transform="translate(0,0)"/>
<path d="" fill="#363635" transform="translate(0,0)"/>
<path d="" fill="#373535" transform="translate(0,0)"/>
<path d="" fill="#383735" transform="translate(0,0)"/>
<path d="" fill="#383637" transform="translate(0,0)"/>
<path d="" fill="#373735" transform="translate(0,0)"/>
<path d="" fill="#333230" transform="translate(0,0)"/>
<path d="" fill="#373535" transform="translate(0,0)"/>
<path d="" fill="#413F3E" transform="translate(0,0)"/>
<path d="" fill="#3D3A3A" transform="translate(0,0)"/>
<path d="" fill="#3E3B3A" transform="translate(0,0)"/>
<path d="" fill="#393738" transform="translate(0,0)"/>
<path d="" fill="#353634" transform="translate(0,0)"/>
<path d="" fill="#393837" transform="translate(0,0)"/>
<path d="" fill="#363333" transform="translate(0,0)"/>
<path d="" fill="#3A3836" transform="translate(0,0)"/>
<path d="" fill="#3A3836" transform="translate(0,0)"/>
<path d="" fill="#3C3737" transform="translate(0,0)"/>
<path d="" fill="#3B3A39" transform="translate(0,0)"/>
<path d="" fill="#333231" transform="translate(0,0)"/>
<path d="" fill="#3B3937" transform="translate(0,0)"/>
<path d="" fill="#383538" transform="translate(0,0)"/>
<path d="" fill="#3B3838" transform="translate(0,0)"/>
<path d="" fill="#373635" transform="translate(0,0)"/>
<path d="" fill="#3E3B3B" transform="translate(0,0)"/>
<path d="" fill="#383737" transform="translate(0,0)"/>
<path d="" fill="#2E2C2A" transform="translate(0,0)"/>
<path d="" fill="#3E3C3A" transform="translate(0,0)"/>
<path d="" fill="#383635" transform="translate(0,0)"/>
<path d="" fill="#383636" transform="translate(0,0)"/>
<path d="" fill="#3A3836" transform="translate(0,0)"/>
<path d="" fill="#3A3634" transform="translate(0,0)"/>
<path d="" fill="#3E3B39" transform="translate(0,0)"/>
<path d="" fill="#3D3B39" transform="translate(0,0)"/>
<path d="" fill="#353432" transform="translate(0,0)"/>
<path d="" fill="#3B3838" transform="translate(0,0)"/>
<path d="" fill="#373636" transform="translate(0,0)"/>
<path d="" fill="#3A3837" transform="translate(0,0)"/>
<path d="" fill="#3B3B38" transform="translate(0,0)"/>
<path d="" fill="#363333" transform="translate(0,0)"/>
<path d="" fill="#3D3C38" transform="translate(0,0)"/>
<path d="" fill="#393636" transform="translate(0,0)"/>
<path d="" fill="#353332" transform="translate(0,0)"/>
<path d="" fill="#353231" transform="translate(0,0)"/>
<path d="" fill="#3A3737" transform="translate(0,0)"/>
<path d="" fill="#3D3C3B" transform="translate(0,0)"/>
<path d="" fill="#3B3836" transform="translate(0,0)"/>
<path d="" fill="#383736" transform="translate(0,0)"/>
<path d="" fill="#3B3839" transform="translate(0,0)"/>
<path d="" fill="#373736" transform="translate(0,0)"/>
<path d="" fill="#383736" transform="translate(0,0)"/>
<path d="" fill="#393836" transform="translate(0,0)"/>
<path d="" fill="#3B3B36" transform="translate(0,0)"/>
<path d="" fill="#383636" transform="translate(0,0)"/>
<path d="" fill="#393637" transform="translate(0,0)"/>
<path d="" fill="#3D3938" transform="translate(0,0)"/>
<path d="" fill="#3B3838" transform="translate(0,0)"/>
<path d="" fill="#383535" transform="translate(0,0)"/>
<path d="" fill="#3E3C3B" transform="translate(0,0)"/>
<path d="" fill="#393737" transform="translate(0,0)"/>
<path d="" fill="#161716" transform="translate(0,0)"/>
<path d="" fill="#393838" transform="translate(0,0)"/>
<path d="" fill="#3B3938" transform="translate(0,0)"/>
<path d="" fill="#393837" transform="translate(0,0)"/>
<path d="" fill="#3D3C3A" transform="translate(0,0)"/>
<path d="" fill="#3D3A3B" transform="translate(0,0)"/>
<path d="" fill="#3E3D3B" transform="translate(0,0)"/>
<path d="" fill="#3A3837" transform="translate(0,0)"/>
<path d="" fill="#393738" transform="translate(0,0)"/>
<path d="" fill="#3A3A38" transform="translate(0,0)"/>
<path d="" fill="#3C3C3B" transform="translate(0,0)"/>
<path d="" fill="#3A3838" transform="translate(0,0)"/>
<path d="" fill="#373838" transform="translate(0,0)"/>
<path d="" fill="#333030" transform="translate(0,0)"/>
<path d="" fill="#373331" transform="translate(0,0)"/>
<path d="" fill="#363334" transform="translate(0,0)"/>
<path d="" fill="#3E3C39" transform="translate(0,0)"/>
<path d="" fill="#413C3C" transform="translate(0,0)"/>
<path d="" fill="#3B3939" transform="translate(0,0)"/>
<path d="" fill="#383938" transform="translate(0,0)"/>
<path d="" fill="#3D393B" transform="translate(0,0)"/>
<path d="" fill="#363534" transform="translate(0,0)"/>
<path d="" fill="#373333" transform="translate(0,0)"/>
<path d="" fill="#353432" transform="translate(0,0)"/>
<path d="" fill="#3D3B3B" transform="translate(0,0)"/>
<path d="" fill="#393938" transform="translate(0,0)"/>
<path d="" fill="#373436" transform="translate(0,0)"/>
<path d="" fill="#373433" transform="translate(0,0)"/>
<path d="" fill="#393637" transform="translate(0,0)"/>
<path d="" fill="#383536" transform="translate(0,0)"/>
<path d="" fill="#363333" transform="translate(0,0)"/>
<path d="" fill="#3A3737" transform="translate(0,0)"/>
<path d="" fill="#383636" transform="translate(0,0)"/>
<path d="" fill="#373434" transform="translate(0,0)"/>
<path d="" fill="#343333" transform="translate(0,0)"/>
<path d="" fill="#393635" transform="translate(0,0)"/>
<path d="" fill="#383639" transform="translate(0,0)"/>
<path d="" fill="#3A3A38" transform="translate(0,0)"/>
<path d="" fill="#3B3836" transform="translate(0,0)"/>
<path d="" fill="#383433" transform="translate(0,0)"/>
<path d="" fill="#393737" transform="translate(0,0)"/>
<path d="" fill="#393738" transform="translate(0,0)"/>
<path d="" fill="#3B3838" transform="translate(0,0)"/>
<path d="" fill="#3C3836" transform="translate(0,0)"/>
<path d="" fill="#393737" transform="translate(0,0)"/>
<path d="" fill="#373836" transform="translate(0,0)"/>
<path d="" fill="#393638" transform="translate(0,0)"/>
<path d="" fill="#363435" transform="translate(0,0)"/>
<path d="" fill="#3C3838" transform="translate(0,0)"/>
<path d="" fill="#353230" transform="translate(0,0)"/>
<path d="" fill="#393737" transform="translate(0,0)"/>
<path d="" fill="#373836" transform="translate(0,0)"/>
<path d="" fill="#3D383D" transform="translate(0,0)"/>
<path d="" fill="#3A3835" transform="translate(0,0)"/>
<path d="" fill="#403F3E" transform="translate(0,0)"/>
<path d="" fill="#3E3E3C" transform="translate(0,0)"/>
<path d="" fill="#3E3E3D" transform="translate(0,0)"/>
<path d="" fill="#383432" transform="translate(0,0)"/>
<path d="" fill="#393737" transform="translate(0,0)"/>
<path d="" fill="#403D3C" transform="translate(0,0)"/>
<path d="" fill="#3F3F3C" transform="translate(0,0)"/>
<path d="" fill="#423F3E" transform="translate(0,0)"/>
<path d="" fill="#3E3D3A" transform="translate(0,0)"/>
<path d="" fill="#3D3D3C" transform="translate(0,0)"/>
<path d="" fill="#40413F" transform="translate(0,0)"/>
<path d="" fill="#413F3E" transform="translate(0,0)"/>
<path d="" fill="#403E3E" transform="translate(0,0)"/>
<path d="" fill="#3F3E3D" transform="translate(0,0)"/>
<path d="" fill="#403E3F" transform="translate(0,0)"/>
<path d="" fill="#3E3D3D" transform="translate(0,0)"/>
<path d="" fill="#403D3C" transform="translate(0,0)"/>
<path d="" fill="#3E3D3C" transform="translate(0,0)"/>
<path d="" fill="#393936" transform="translate(0,0)"/>
<path d="" fill="#373735" transform="translate(0,0)"/>
<path d="" fill="#393734" transform="translate(0,0)"/>
<path d="" fill="#383735" transform="translate(0,0)"/>
<path d="" fill="#3C3F3F" transform="translate(0,0)"/>
<path d="" fill="#3A3836" transform="translate(0,0)"/>
<path d="" fill="#393739" transform="translate(0,0)"/>
<path d="" fill="#373533" transform="translate(0,0)"/>
<path d="" fill="#3A3936" transform="translate(0,0)"/>
<path d="" fill="#373734" transform="translate(0,0)"/>
<path d="" fill="#333330" transform="translate(0,0)"/>
<path d="" fill="#393534" transform="translate(0,0)"/>
<path d="" fill="#3A3737" transform="translate(0,0)"/>
<path d="" fill="#373734" transform="translate(0,0)"/>
<path d="" fill="#393635" transform="translate(0,0)"/>
<path d="" fill="#393735" transform="translate(0,0)"/>
<path d="" fill="#353635" transform="translate(0,0)"/>
<path d="" fill="#373535" transform="translate(0,0)"/>
<path d="" fill="#363534" transform="translate(0,0)"/>
<path d="" fill="#393735" transform="translate(0,0)"/>
<path d="" fill="#383833" transform="translate(0,0)"/>
<path d="" fill="#353533" transform="translate(0,0)"/>
<path d="" fill="#333331" transform="translate(0,0)"/>
<path d="" fill="#3A3836" transform="translate(0,0)"/>
<path d="" fill="#393735" transform="translate(0,0)"/>
<path d="" fill="#3B3C3A" transform="translate(0,0)"/>
<path d="" fill="#393936" transform="translate(0,0)"/>
<path d="" fill="#3A3738" transform="translate(0,0)"/>
<path d="" fill="#3C3738" transform="translate(0,0)"/>
<path d="" fill="#3C3A3B" transform="translate(0,0)"/>
<path d="" fill="#3D3A3C" transform="translate(0,0)"/>
<path d="" fill="#383333" transform="translate(0,0)"/>
<path d="" fill="#3A3B3B" transform="translate(0,0)"/>
<path d="" fill="#3D3838" transform="translate(0,0)"/>
<path d="" fill="#3B3A3A" transform="translate(0,0)"/>
<path d="" fill="#3E3E3A" transform="translate(0,0)"/>
<path d="" fill="#3D3A37" transform="translate(0,0)"/>
<path d="" fill="#3A3938" transform="translate(0,0)"/>
<path d="" fill="#3C3A37" transform="translate(0,0)"/>
<path d="" fill="#3A3837" transform="translate(0,0)"/>
<path d="" fill="#3B3836" transform="translate(0,0)"/>
<path d="" fill="#3D3A39" transform="translate(0,0)"/>
<path d="" fill="#3C3938" transform="translate(0,0)"/>
<path d="" fill="#393938" transform="translate(0,0)"/>
<path d="" fill="#393637" transform="translate(0,0)"/>
<path d="" fill="#393838" transform="translate(0,0)"/>
<path d="" fill="#3A3835" transform="translate(0,0)"/>
<path d="" fill="#383936" transform="translate(0,0)"/>
<path d="" fill="#393938" transform="translate(0,0)"/>
<path d="" fill="#3F3A3A" transform="translate(0,0)"/>
<path d="" fill="#3C3837" transform="translate(0,0)"/>
<path d="" fill="#3C3B39" transform="translate(0,0)"/>
<path d="" fill="#3C3C3C" transform="translate(0,0)"/>
<path d="" fill="#3B3937" transform="translate(0,0)"/>
<path d="" fill="#3C3B39" transform="translate(0,0)"/>
<path d="" fill="#383934" transform="translate(0,0)"/>
<path d="" fill="#3F3E3C" transform="translate(0,0)"/>
<path d="" fill="#3A3A39" transform="translate(0,0)"/>
<path d="" fill="#3C3939" transform="translate(0,0)"/>
<path d="" fill="#393939" transform="translate(0,0)"/>
<path d="" fill="#3C3A3A" transform="translate(0,0)"/>
<path d="" fill="#333232" transform="translate(0,0)"/>
<path d="" fill="#3D3B39" transform="translate(0,0)"/>
<path d="" fill="#3E3A3A" transform="translate(0,0)"/>
<path d="" fill="#3C3938" transform="translate(0,0)"/>
<path d="" fill="#3A3838" transform="translate(0,0)"/>
<path d="" fill="#3A3B38" transform="translate(0,0)"/>
<path d="" fill="#3B3C3B" transform="translate(0,0)"/>
<path d="" fill="#3C3D39" transform="translate(0,0)"/>
<path d="" fill="#343133" transform="translate(0,0)"/>
<path d="" fill="#3B3A39" transform="translate(0,0)"/>
<path d="" fill="#3B3B3A" transform="translate(0,0)"/>
<path d="" fill="#38393A" transform="translate(0,0)"/>
<path d="" fill="#3A3B3B" transform="translate(0,0)"/>
<path d="" fill="#3F3F3C" transform="translate(0,0)"/>
<path d="" fill="#3A3C3B" transform="translate(0,0)"/>
<path d="" fill="#3A3B3A" transform="translate(0,0)"/>
<path d="" fill="#3C3D3B" transform="translate(0,0)"/>
<path d="" fill="#3C3C3B" transform="translate(0,0)"/>
<path d="" fill="#3D393B" transform="translate(0,0)"/>
<path d="" fill="#3E3E3E" transform="translate(0,0)"/>
<path d="" fill="#3D3C39" transform="translate(0,0)"/>
<path d="" fill="#3D3C3C" transform="translate(0,0)"/>
<path d="" fill="#3C3E3C" transform="translate(0,0)"/>
<path d="" fill="#3D3B3C" transform="translate(0,0)"/>
<path d="" fill="#3D3C3B" transform="translate(0,0)"/>
<path d="" fill="#3F3B3C" transform="translate(0,0)"/>
<path d="" fill="#3E3C3B" transform="translate(0,0)"/>
<path d="" fill="#3E3C3B" transform="translate(0,0)"/>
<path d="" fill="#3E3D3C" transform="translate(0,0)"/>
<path d="" fill="#403B3C" transform="translate(0,0)"/>
<path d="" fill="#3E3C3D" transform="translate(0,0)"/>
<path d="" fill="#3B3A3A" transform="translate(0,0)"/>
<path d="" fill="#3B3837" transform="translate(0,0)"/>
<path d="" fill="#413E3E" transform="translate(0,0)"/>
<path d="" fill="#413F3E" transform="translate(0,0)"/>
<path d="" fill="#423F40" transform="translate(0,0)"/>
<path d="" fill="#3F3E3C" transform="translate(0,0)"/>
<path d="" fill="#41403F" transform="translate(0,0)"/>
<path d="" fill="#413F3E" transform="translate(0,0)"/>
<path d="" fill="#3B3638" transform="translate(0,0)"/>
<path d="" fill="#3E3F3D" transform="translate(0,0)"/>
<path d="" fill="#403E3E" transform="translate(0,0)"/>
<path d="" fill="#3D3E3C" transform="translate(0,0)"/>
<path d="" fill="#413F3F" transform="translate(0,0)"/>
<path d="" fill="#413E3F" transform="translate(0,0)"/>
<path d="" fill="#423D40" transform="translate(0,0)"/>
<path d="" fill="#3F3F40" transform="translate(0,0)"/>
<path d="" fill="#343333" transform="translate(0,0)"/>
<path d="" fill="#403F41" transform="translate(0,0)"/>
<path d="" fill="#444042" transform="translate(0,0)"/>
<path d="" fill="#464443" transform="translate(0,0)"/>
<path d="" fill="#454643" transform="translate(0,0)"/>
<path d="" fill="#43403F" transform="translate(0,0)"/>
<path d="" fill="#414142" transform="translate(0,0)"/>
<path d="" fill="#444341" transform="translate(0,0)"/>
<path d="" fill="#42403F" transform="translate(0,0)"/>
<path d="" fill="#413F3C" transform="translate(0,0)"/>
<path d="" fill="#42403F" transform="translate(0,0)"/>
<path d="" fill="#444140" transform="translate(0,0)"/>
<path d="" fill="#414043" transform="translate(0,0)"/>
<path d="" fill="#43413E" transform="translate(0,0)"/>
<path d="" fill="#413F40" transform="translate(0,0)"/>
<path d="" fill="#423E40" transform="translate(0,0)"/>
<path d="" fill="#424040" transform="translate(0,0)"/>
<path d="" fill="#424141" transform="translate(0,0)"/>
</svg>
